/* XPM */
static char *PackMan2ExtendedFrm_ID_MNU_ABOUT_1006_XPM[]={
/* PackMan2ExtendedFrm_ID_MNU_ABOUT_1006 */
"16 16 81 2",
"      c None",
" 0    c #FCAF3E",
" 1    c #FCB03E",
" 2    c #FCB13E",
" 3    c #FCB23F",
" 4    c #FBC168",
" 5    c #FDCD83",
" 6    c #FCCC82",
" 7    c #FCC470",
" 8    c #FCBA53",
" 9    c #FBAE3F",
" a    c #FCB23E",
" b    c #FCC66D",
" c    c #FDE6BF",
" d    c #FEF7E2",
" e    c #FEFBE7",
" f    c #FDF8D5",
" g    c #FCE7A3",
" h    c #FBBA54",
" i    c #FCB43F",
" j    c #FBC16E",
" k    c #FDE6C1",
" l    c #FEFDF7",
" m    c #FEFCED",
" n    c #FEF8CD",
" o    c #FDF4AF",
" p    c #FCF3A4",
" q    c #FCED92",
" r    c #FBB443",
" s    c #FBAE3D",
" t    c #FEFCEE",
" u    c #FEFDF0",
" v    c #FEF9CF",
" w    c #FDF4AC",
" x    c #FDF089",
" y    c #FCEE7D",
" z    c #FCD659",
" A    c #FCB33E",
" B    c #FCCD84",
" C    c #FEFBE9",
" D    c #FEF8CF",
" E    c #FEF9D0",
" F    c #FDF6BE",
" G    c #FDF3A1",
" H    c #FCEF81",
" I    c #FCEB64",
" J    c #FCE456",
" K    c #FBB13E",
" L    c #FCC570",
" M    c #FDF8D8",
" N    c #FDF5B0",
" O    c #FDF4AE",
" P    c #FDF3A2",
" Q    c #FDF08C",
" R    c #FCED71",
" S    c #FCE955",
" T    c #FCE34D",
" U    c #FBB13F",
" V    c #FCBC57",
" W    c #FDEAAA",
" X    c #FCF3A3",
" Y    c #FDF08B",
" Z    c #FCEF82",
" &    c #FCEA5A",
"0     c #FCE94F",
"00    c #FBD349",
"01    c #FBAF3D",
"02    c #FCBC59",
"03    c #FDED98",
"04    c #FCED7B",
"05    c #FCEB63",
"06    c #FCE954",
"07    c #FBB33F",
"08    c #FCB33F",
"09    c #FCB646",
"0a    c #FBD85E",
"0b    c #FCE459",
"0c    c #FCE44D",
"0d    c #FCD549",
"0e    c #FBB43F",
"0f    c #FBB33E",
"               0 0              ",
"               1 2              ",
"     0 0     0 2 2 0     0 0    ",
"     0 0 3 4 5 6 7 8 9 a 0 0    ",
"       a b c d e f g h i 3      ",
"       j k l m n o p q r s      ",
"     0 5 d t u v w x y z A 0    ",
" 0 2 2 B C D E F G H I J K 2 1 0",
" 0 1 2 L M N O P Q R S T U 2 2 0",
"     0 V W X Y Z R &0 00 a 0    ",
"      0102030405060  T0701      ",
"       308090a0b0c0d0e0f a      ",
"     0 0 a01 a U K A 9 a 0 0    ",
"     0 0     0 2 2 0     0 0    ",
"               2 1              ",
"               0 0              "};

