/* XPM */
static char *PackMan2ExtendedFrm_btnRemove_XPM[]={
/* PackMan2ExtendedFrm_btnRemove */
"32 32 556 2",
"      c None",
" 0    c #4D5506",
" 1    c #565D13",
" 2    c #4E5608",
" 3    c #51590D",
" 4    c #4E5607",
" 5    c #565E14",
" 6    c #979D73",
" 7    c #E6EAE7",
" 8    c #EFF3F4",
" 9    c #D0D5C7",
" a    c #616823",
" b    c #535B0F",
" c    c #E4E9E7",
" d    c #565A58",
" e    c #646661",
" f    c #646662",
" g    c #656763",
" h    c #666863",
" i    c #666865",
" j    c #676965",
" k    c #696B66",
" l    c #696B67",
" m    c #6A6C68",
" n    c #6B6D69",
" o    c #6C6E6A",
" p    c #6D6F6A",
" q    c #6D6F6B",
" r    c #6E706D",
" s    c #70726D",
" t    c #72746F",
" u    c #737570",
" v    c #737571",
" w    c #757772",
" x    c #767873",
" y    c #838480",
" z    c #C5C7C4",
" A    c #C6CBB9",
" B    c #888E5D",
" C    c #A0A4A3",
" D    c #3F4344",
" E    c #5B5D58",
" F    c #5C5E5A",
" G    c #5D5F5B",
" H    c #5F615C",
" I    c #60625E",
" J    c #61635F",
" K    c #636560",
" L    c #686A66",
" M    c #6A6C67",
" N    c #6B6D68",
" O    c #6E706B",
" P    c #6F716C",
" Q    c #71736E",
" R    c #848783",
" S    c #C2C5BE",
" T    c #EEF2F3",
" U    c #606722",
" V    c #565E13",
" W    c #C7CCBA",
" X    c #5C6060",
" Y    c #3E4242",
" Z    c #878A85",
" &    c #CACDC6",
"0     c #D2D6D3",
"00    c #A9AE8D",
"01    c #575E14",
"02    c #5A6119",
"03    c #353A3C",
"04    c #3C4141",
"05    c #8A8B86",
"06    c #CACEC7",
"07    c #E5E9E6",
"08    c #535A0E",
"09    c #989F75",
"0a    c #B2B5B6",
"0b    c #2E3436",
"0c    c #3A3F40",
"0d    c #8C8F8A",
"0e    c #DBDFD7",
"0f    c #E3E7E6",
"0g    c #888F5D",
"0h    c #50580B",
"0i    c #CFD4C6",
"0j    c #898D8E",
"0k    c #2F3537",
"0l    c #3A3F3F",
"0m    c #8D908B",
"0n    c #C8CBC4",
"0o    c #D3D6D3",
"0p    c #CACFBD",
"0q    c #575F16",
"0r    c #D2D6CA",
"0s    c #EAEEEF",
"0t    c #E9EDEE",
"0u    c #E8ECED",
"0v    c #E7EBEC",
"0w    c #E7EAEB",
"0x    c #E6EAEB",
"0y    c #E6E9EA",
"0z    c #E5E9EA",
"0A    c #E5E8E9",
"0B    c #E4E8E9",
"0C    c #E4E7E8",
"0D    c #E3E7E8",
"0E    c #C9CDC1",
"0F    c #535B11",
"0G    c #8C916F",
"0H    c #BDC0C1",
"0I    c #BEC1C2",
"0J    c #BCBFC0",
"0K    c #BCBEBF",
"0L    c #BBBEBF",
"0M    c #BABDBE",
"0N    c #B9BCBD",
"0O    c #B9BBBC",
"0P    c #B8BBBC",
"0Q    c #B8BABB",
"0R    c #B6B9B9",
"0S    c #888D6B",
"0T    c #52590E",
"0U    c #606A07",
"0V    c #77821C",
"0W    c #B5C053",
"0X    c #B5C051",
"0Y    c #B3BE50",
"0Z    c #AEB94E",
"0&    c #A9B34B",
"1     c #A5AE4A",
"10    c #9FA847",
"11    c #9AA345",
"12    c #949D43",
"13    c #8D9640",
"14    c #858D3D",
"15    c #7D8539",
"16    c #767D35",
"17    c #6F7532",
"18    c #6C7331",
"19    c #6A7131",
"1a    c #686F30",
"1b    c #656D2F",
"1c    c #636B2E",
"1d    c #62682E",
"1e    c #61682E",
"1f    c #636A31",
"1g    c #606913",
"1h    c #5F6907",
"1i    c #5E6709",
"1j    c #707B16",
"1k    c #B7C257",
"1l    c #B2BD50",
"1m    c #B0BA4F",
"1n    c #ADB74E",
"1o    c #AAB44D",
"1p    c #A7B14B",
"1q    c #A4AE4A",
"1r    c #A1AB49",
"1s    c #9EA848",
"1t    c #9CA547",
"1u    c #99A346",
"1v    c #959F44",
"1w    c #8F9942",
"1x    c #899340",
"1y    c #828B3D",
"1z    c #7B843A",
"1A    c #737C36",
"1B    c #6F7634",
"1C    c #747B3B",
"1D    c #636D13",
"1E    c #5E6805",
"1F    c #5A6707",
"1G    c #687313",
"1H    c #B9C45C",
"1I    c #B4BF50",
"1J    c #B1BC4F",
"1K    c #AFB94E",
"1L    c #ACB64D",
"1M    c #A9B34C",
"1N    c #ACB558",
"1O    c #ACB55C",
"1P    c #C9CF98",
"1Q    c #CAD09D",
"1R    c #B6BE7A",
"1S    c #98A246",
"1T    c #959F45",
"1U    c #939D46",
"1V    c #8C9641",
"1W    c #87903F",
"1X    c #848D3E",
"1Y    c #828B3E",
"1Z    c #8F9753",
"1&    c #646D10",
"2     c #606808",
"20    c #5A6900",
"21    c #626B0D",
"22    c #BCC662",
"23    c #B1BB4F",
"24    c #AEB84E",
"25    c #ABB54D",
"26    c #B9C16F",
"27    c #BEC67E",
"28    c #B4BD6E",
"29    c #B0B969",
"2a    c #CED3A3",
"2b    c #CCD1A2",
"2c    c #A6AF60",
"2d    c #B3BA7B",
"2e    c #97A04E",
"2f    c #8E9842",
"2g    c #8B9541",
"2h    c #899240",
"2i    c #8B9347",
"2j    c #919952",
"2k    c #979E5B",
"2l    c #A1A86B",
"2m    c #5F690B",
"2n    c #5D5D00",
"2o    c #000000",
"2p    c #5B6608",
"2q    c #BEC869",
"2r    c #B3BD50",
"2s    c #B0BB4F",
"2t    c #ADB84E",
"2u    c #B2BB5D",
"2v    c #C0C87E",
"2w    c #BEC57D",
"2x    c #B4BC6E",
"2y    c #9FA948",
"2z    c #C4CA92",
"2A    c #CACFA1",
"2B    c #BEC48E",
"2C    c #909A43",
"2D    c #919A48",
"2E    c #959D51",
"2F    c #98A05A",
"2G    c #979F5C",
"2H    c #969E5A",
"2I    c #A1A96C",
"2J    c #5B6508",
"2K    c #5D6609",
"2L    c #BAC369",
"2M    c #B2BD4F",
"2N    c #AFBA4E",
"2O    c #ACB74D",
"2P    c #A9B44C",
"2Q    c #AEB85B",
"2R    c #BAC278",
"2S    c #A5AF54",
"2T    c #A6B059",
"2U    c #C5CB95",
"2V    c #CFD4AA",
"2W    c #CFD4AC",
"2X    c #B6BD82",
"2Y    c #9FA85F",
"2Z    c #9DA55D",
"2&    c #9AA25B",
"3     c #979F5A",
"30    c #959D59",
"31    c #949C57",
"32    c #9FA669",
"33    c #5B640A",
"34    c #5D670B",
"35    c #B6BF66",
"36    c #C0C972",
"37    c #CDD391",
"38    c #D1D89F",
"39    c #D6DBAC",
"3a    c #B5BE6C",
"3b    c #AFB965",
"3c    c #AFB766",
"3d    c #B9C07D",
"3e    c #C1C78E",
"3f    c #C6CB99",
"3g    c #CDD1A7",
"3h    c #A7AE68",
"3i    c #9DA55B",
"3j    c #9AA259",
"3k    c #979F57",
"3l    c #949C56",
"3m    c #939B55",
"3n    c #929A54",
"3o    c #959D5A",
"3p    c #9BA265",
"3q    c #5A650B",
"3r    c #5D680C",
"3s    c #AFB862",
"3t    c #B9C35B",
"3u    c #B7C25A",
"3v    c #B9C366",
"3w    c #D3D9A1",
"3x    c #DBDFB3",
"3y    c #D9DEB3",
"3z    c #BFC681",
"3A    c #AFB863",
"3B    c #ACB561",
"3C    c #A9B260",
"3D    c #A6AF5E",
"3E    c #A3AC5D",
"3F    c #A0A95B",
"3G    c #9DA65A",
"3H    c #A5AD6A",
"3I    c #9BA35B",
"3J    c #959D54",
"3K    c #919953",
"3L    c #909951",
"3M    c #979E5C",
"3N    c #969D5F",
"3O    c #59640C",
"3P    c #5D660C",
"3Q    c #A8B15C",
"3R    c #BFC868",
"3S    c #BDC769",
"3T    c #BCC66D",
"3U    c #DADEAF",
"3V    c #DADEB2",
"3W    c #D1D7A3",
"3X    c #C7CD92",
"3Y    c #ADB560",
"3Z    c #AAB25E",
"3&    c #A7AF5D",
"4     c #A4AC5B",
"40    c #A1A95A",
"41    c #A7AF69",
"42    c #B4BA81",
"43    c #B5BB85",
"44    c #A7AE70",
"45    c #929A51",
"46    c #909850",
"47    c #8F974F",
"48    c #8F974E",
"49    c #99A05F",
"4a    c #909857",
"4b    c #59620A",
"4c    c #5B630B",
"4d    c #A0A854",
"4e    c #C2CB71",
"4f    c #BFC96A",
"4g    c #BEC868",
"4h    c #BBC567",
"4i    c #C3CB7D",
"4j    c #DADFB1",
"4k    c #D1D7A2",
"4l    c #AFB960",
"4m    c #B5BD6E",
"4n    c #AAB35D",
"4o    c #A7B05C",
"4p    c #A4AD5A",
"4q    c #A1AA57",
"4r    c #A0A959",
"4s    c #A1A95E",
"4t    c #B5BB83",
"4u    c #B3B982",
"4v    c #ABB178",
"4w    c #8E964D",
"4x    c #8D954C",
"4y    c #8D954B",
"4z    c #9AA261",
"4A    c #87904C",
"4B    c #555E07",
"4C    c #545E08",
"4D    c #9CA455",
"4E    c #C8D07F",
"4F    c #BEC867",
"4G    c #BCC665",
"4H    c #B9C364",
"4I    c #BAC36A",
"4J    c #D8DDAF",
"4K    c #BAC273",
"4L    c #AEB75E",
"4M    c #ABB45B",
"4N    c #A8B159",
"4O    c #A5AE58",
"4P    c #A2AB56",
"4Q    c #B2B977",
"4R    c #ABB36F",
"4S    c #99A151",
"4T    c #A3AB67",
"4U    c #A9B073",
"4V    c #99A15C",
"4W    c #8C944A",
"4X    c #8B9449",
"4Y    c #8B9348",
"4Z    c #8A9348",
"4&    c #9BA263",
"5     c #7F8640",
"50    c #525B06",
"51    c #515907",
"52    c #8F9646",
"53    c #C8D181",
"54    c #BDC765",
"55    c #BDC764",
"56    c #BAC463",
"57    c #B7C160",
"58    c #B4BE5F",
"59    c #C6CD89",
"5a    c #B4BD68",
"5b    c #C3C988",
"5c    c #C0C787",
"5d    c #A5AE56",
"5e    c #A2AB54",
"5f    c #ADB56D",
"5g    c #CCD1A6",
"5h    c #A8B06D",
"5i    c #A5AC6A",
"5j    c #A6AD6F",
"5k    c #929B52",
"5l    c #8A9247",
"5m    c #899246",
"5n    c #899145",
"5o    c #889145",
"5p    c #9DA465",
"5q    c #757D33",
"5r    c #505A05",
"5s    c #4F5705",
"5t    c #7F8836",
"5u    c #C9D182",
"5v    c #BBC560",
"5w    c #B8C25E",
"5x    c #B4BF5D",
"5y    c #B1BC5B",
"5z    c #B0BA5F",
"5A    c #B8C070",
"5B    c #C1C886",
"5C    c #BFC585",
"5D    c #A3AC53",
"5E    c #A9B264",
"5F    c #CBD0A4",
"5G    c #CCD0A6",
"5H    c #CBCFA5",
"5I    c #C9CDA4",
"5J    c #C7CCA3",
"5K    c #A8AE72",
"5L    c #899245",
"5M    c #889144",
"5N    c #879043",
"5O    c #879042",
"5P    c #868F42",
"5Q    c #9FA668",
"5R    c #697127",
"5S    c #4E5807",
"5T    c #4F5607",
"5U    c #717A28",
"5V    c #CAD284",
"5W    c #BBC55F",
"5X    c #B8C35D",
"5Y    c #B5C05C",
"5Z    c #B2BD5A",
"5&    c #AFB958",
"6     c #ADB657",
"60    c #BAC177",
"61    c #BDC482",
"62    c #A0AA50",
"63    c #A5AD5C",
"64    c #C9CD9F",
"65    c #CBCFA4",
"66    c #C9CDA3",
"67    c #C5C99E",
"68    c #AEB47B",
"69    c #8A9343",
"6a    c #868F41",
"6b    c #858E40",
"6c    c #858E3F",
"6d    c #A1A86C",
"6e    c #5F681C",
"6f    c #505505",
"6g    c #495204",
"6h    c #616917",
"6i    c #CBD386",
"6j    c #B6C15A",
"6k    c #B3BE59",
"6l    c #B0BA56",
"6m    c #ADB755",
"6n    c #ABB453",
"6o    c #A7B151",
"6p    c #A4AE50",
"6q    c #A1AB4E",
"6r    c #9EA74C",
"6s    c #9AA44B",
"6t    c #A2AB5D",
"6u    c #C8CC9F",
"6v    c #9DA55A",
"6w    c #8E9744",
"6x    c #8A9342",
"6y    c #A4AB70",
"6z    c #545C10",
"6A    c #393F05",
"6B    c #303404",
"6C    c #535C0C",
"6D    c #CCD387",
"6E    c #B7C258",
"6F    c #B4BF57",
"6G    c #B1BC55",
"6H    c #AEB853",
"6I    c #ACB552",
"6J    c #A8B250",
"6K    c #A5AF4E",
"6L    c #A2AC4D",
"6M    c #9EA84B",
"6N    c #9BA549",
"6O    c #97A147",
"6P    c #959E45",
"6Q    c #99A153",
"6R    c #8C9541",
"6S    c #868F3F",
"6T    c #A6AC72",
"6U    c #4B5407",
"6V    c #101500",
"6W    c #060600",
"6X    c #4D5508",
"6Y    c #C0C87A",
"6Z    c #B8C35E",
"6&    c #B2BD54",
"7     c #AEB952",
"70    c #ACB650",
"71    c #A9B34E",
"72    c #A6AF4D",
"73    c #A2AC4B",
"74    c #9CA647",
"75    c #97A045",
"76    c #949D44",
"77    c #919A43",
"78    c #8E9742",
"79    c #8B9441",
"7a    c #889140",
"7b    c #989F62",
"7c    c #4B5208",
"7d    c #454C08",
"7e    c #848C3F",
"7f    c #C1C97C",
"7g    c #C5CD82",
"7h    c #C4CB80",
"7i    c #C2C97E",
"7j    c #BFC77D",
"7k    c #BDC47D",
"7l    c #BBC27C",
"7m    c #B9C07B",
"7n    c #B7BE7A",
"7o    c #B5BC7A",
"7p    c #B3BA79",
"7q    c #B1B778",
"7r    c #AFB578",
"7s    c #ADB377",
"7t    c #ABB176",
"7u    c #A8AF75",
"7v    c #A7AD75",
"7w    c #A6AD73",
"7x    c #9AA162",
"7y    c #6B722E",
"7z    c #3C4407",
"7A    c #252904",
"7B    c #484F09",
"7C    c #495207",
"7D    c #495106",
"7E    c #4A5207",
"7F    c #454D08",
"7G    c #111100",
"                                                                ",
"     0 1 2 0 0 0 0 0 0 0 0 0 0 0 0 0 0 0 0 0 0 0 0 0 0 3 4      ",
"     5 6 7 8 8 8 8 8 8 8 8 8 8 8 8 8 8 8 8 8 8 8 8 8 8 9 a 0    ",
"   0 b c d e f g h i j k l m n o p q r s s t u v w x y z A 5    ",
"   2 B C D E F G H I J K f h j L M N o O P Q t v w x R S T U 0  ",
"   V W X Y E F G H I J K f h j L M N o O P Q t v w x Z &0 0001  ",
" 002 T0304 E F G H I J K f h j L M N o O P Q t v w x05 &0607 b 0",
"08090a0b0c E F G H I J K f h j L M N o O P Q t v w x0d &0e0f0g0h",
" V0i0j0k0l E F G H I J K f h j L M N o O P Q t v w x0m0n0e0o0p0q",
" V0r0s0s0s0t0t0t0t0u0u0u0u0v0v0v0w0x0x0x0y0z0z0A0A0B0B0C0D0D0E 5",
"0F0G0H0I0I0I0H0H0H0H0J0J0J0K0L0L0L0M0M0M0M0N0N0N0O0P0P0P0Q0R0S0F",
" 0 3 0 0 0 0 0 0 0 0 0 0 0 0 0 0 0 0 0 0 0 0 0 0 0 0 0 0 0 00T 0",
"  0U0V0W0X0X0X0X0X0Y0Z0&1 101112131415161718191a1b1c1d1e1f1g1h  ",
"  1i1j1k0X0X0X0X0X0X1l1m1n1o1p1q1r1s1t1u1v1w1x1y1z1A1B1B1C1D1E  ",
"  1F1G1H0X0X0X0X0X1I1J1K1L1M1N1O1P1Q1R1S1T1U1w1V1x1W1X1Y1Z1&2   ",
"  2021220X0X0X0X0X0Y232425262728292a2b2c2d2e2f2g2h2i2j2k2l2m2n  ",
"  2o2p2q0X0X0X0X0X2r2s2t2u2v2w2x2y2z2b2A2B2C2D2E2F2G2k2H2I2J    ",
"    2K2L0W0X0X0X0X2M2N2O2P2Q2R2S2T2U2V2W2X2Y2Z2&3 3031303233    ",
"    34351k0X0X0X1I363738393a3b3c3d3e3f3g3h3i3j3k3l3m3n3o3p3q    ",
"    3r3s3t0X0X0X3u3v3w3x3y3z3A3B3C3D3E3F3G3H3I3J3K2j3L3M3N3O    ",
"    3P3Q220X1H3R3S3T3U3V3W3X3Y3Z3&4 404142434445464748494a4b    ",
"    4c4d4e3R4f4g4h4i4j4k4l4m4n4o4p4q4r4s4t4u4v484w4x4y4z4A4B    ",
"    4C4D4E4g4F4G4H4I4J4K4L4M4N4O4P4Q4R4S4T4U4V4W4X4Y4Z4&5 50    ",
"    5152535455565758595a5b5c5d5e5f5g2X5h5i5j5k5l5m5n5o5p5q5r    ",
"    5s5t5u225v5w5x5y5z5A5B5C5D5E5F5G5H5I5J5K5L5M5N5O5P5Q5R5S    ",
"    5T5U5V5W5X5Y5Z5&6 4L606162636465666768695P6a6b6c6c6d6e6f    ",
"    6g6h6i1H6j6k6l6m6n6o6p6q6r6s6t6u6v6w6x1W6c6c6c6c6c6y6z6A2o  ",
"  2o6B6C6D6E6F6G6H6I6J6K6L6M6N6O6P4s6Q6R2h6S6c6c6c6c6a6T6U6V2o2o",
"  2o6W6X6Y6Z6&7 707172732y741u75767778797a6c6c6c6c6a3m7b7c2o2o2o",
"  2o2o7d7e7f7g7h7i7j7k7l7m7n7o7p7q7r7s7t7u7v7v7v7v7w7x7y7z2o2o2o",
"  2o2o7A7B7C7D7D7D7D7D7D7D7D7D7D7D7D7D7D7D7D7D7D7D7D7E7F7G2o2o  ",
"      2o2o2o2o2o2o2o2o2o2o2o2o2o2o2o2o2o2o2o2o2o2o2o2o2o2o2o    "};

