/* XPM */
static char *PackMan2ExtendedFrm_WxToolButton1_XPM[]={
/* PackMan2ExtendedFrm_WxToolButton1 */
"32 32 280 2",
"      c None",
" 0    c #ACC4E4",
" 1    c #B1C8E7",
" 2    c #E78374",
" 3    c #E68273",
" 4    c #E68172",
" 5    c #E68071",
" 6    c #E67F70",
" 7    c #E67E6F",
" 8    c #E57D6E",
" 9    c #E57D6D",
" a    c #E57C6C",
" b    c #E57B6B",
" c    c #E57A6A",
" d    c #E57969",
" e    c #E47868",
" f    c #E47767",
" g    c #E47666",
" h    c #E47565",
" i    c #E47564",
" j    c #E47463",
" k    c #E37362",
" l    c #E37261",
" m    c #E37160",
" n    c #E3705F",
" o    c #E36F5E",
" p    c #E36E5D",
" q    c #9DB8DC",
" r    c #97B3D8",
" s    c #ADC5E5",
" t    c #AFC7E6",
" u    c #E26D5C",
" v    c #E26D5B",
" w    c #E26C5A",
" x    c #9CB7DC",
" y    c #9BB6DC",
" z    c #3566A5",
" A    c #ABC3E4",
" B    c #D31E03",
" C    c #D31C00",
" D    c #9AB5DB",
" E    c #9AB4DB",
" F    c #A9C2E3",
" G    c #ABC4E4",
" H    c #98B3DA",
" I    c #97B2D9",
" J    c #3566A4",
" K    c #A7C1E2",
" L    c #DC4F39",
" M    c #DC4D37",
" N    c #96B2D9",
" O    c #95B0D8",
" P    c #A5BFE1",
" Q    c #FFFFFF",
" R    c #94B0D7",
" S    c #93AFD7",
" T    c #A3BDE0",
" U    c #A5BEE1",
" V    c #92AED6",
" W    c #90ADD6",
" X    c #A2BCDF",
" Y    c #90ACD5",
" Z    c #8FABD4",
" &    c #A0BBDE",
"0     c #A2BBDF",
"00    c #FAFAFA",
"01    c #DEDEDE",
"02    c #8EAAD3",
"03    c #8DA9D3",
"04    c #3565A4",
"05    c #9EB9DD",
"06    c #A0B9DE",
"07    c #8BA8D2",
"08    c #8BA7D2",
"09    c #9EB8DD",
"0a    c #89A6D1",
"0b    c #88A5D0",
"0c    c #9CB5DB",
"0d    c #9CB6DC",
"0e    c #87A4CF",
"0f    c #85A3CF",
"0g    c #99B3DA",
"0h    c #99B4DA",
"0i    c #85A2CE",
"0j    c #84A1CE",
"0k    c #98B3D9",
"0l    c #83A0CD",
"0m    c #829FCC",
"0n    c #95B0D7",
"0o    c #819ECB",
"0p    c #7F9DCA",
"0q    c #93AED6",
"0r    c #7E9CCA",
"0s    c #7D9BC8",
"0t    c #92ADD5",
"0u    c #91ADD5",
"0v    c #6289C3",
"0w    c #6381AC",
"0x    c #687383",
"0y    c #6A6F76",
"0z    c #6A6E75",
"0A    c #667387",
"0B    c #5E7DAD",
"0C    c #5C82BB",
"0D    c #5C81BB",
"0E    c #7D9AC8",
"0F    c #7B98C7",
"0G    c #8FABD3",
"0H    c #6188C2",
"0I    c #6187C0",
"0J    c #6A6E74",
"0K    c #6C6C6C",
"0L    c #686F7A",
"0M    c #5B80BA",
"0N    c #7997C6",
"0O    c #8DA9D2",
"0P    c #8EAAD2",
"0Q    c #6087C1",
"0R    c #6182B4",
"0S    c #727272",
"0T    c #AAAAAA",
"0U    c #ACACAC",
"0V    c #AFAFAF",
"0W    c #B1B1B1",
"0X    c #B4B4B4",
"0Y    c #B7B7B7",
"0Z    c #B8B8B8",
"0&    c #BBBBBB",
"1     c #BEBEBE",
"10    c #B5B5B5",
"11    c #AEAEAE",
"12    c #A5A5A5",
"13    c #6F6F6F",
"14    c #5C7DB2",
"15    c #5A7FB9",
"16    c #7896C5",
"17    c #7794C4",
"18    c #8BA7D1",
"19    c #6086C0",
"1a    c #6181B2",
"1b    c #777777",
"1c    c #BABABA",
"1d    c #BDBDBD",
"1e    c #C0C0C0",
"1f    c #C3C3C3",
"1g    c #C6C6C6",
"1h    c #C8C8C8",
"1i    c #CACACA",
"1j    c #C2C2C2",
"1k    c #B6B6B6",
"1l    c #B3B3B3",
"1m    c #ABABAB",
"1n    c #A7A7A7",
"1o    c #717171",
"1p    c #5B7CB0",
"1q    c #5A7EB8",
"1r    c #7694C4",
"1s    c #7492C3",
"1t    c #89A5D0",
"1u    c #5F85BF",
"1v    c #6181B1",
"1w    c #787878",
"1x    c #C1C1C1",
"1y    c #C4C4C4",
"1z    c #BCBCBC",
"1A    c #B9B9B9",
"1B    c #ADADAD",
"1C    c #A9A9A9",
"1D    c #A1A1A1",
"1E    c #9E9E9E",
"1F    c #707070",
"1G    c #5B7BAF",
"1H    c #597DB7",
"1I    c #7492C2",
"1J    c #7290C1",
"1K    c #87A3CE",
"1L    c #5E84BE",
"1M    c #6080B1",
"1N    c #797979",
"1O    c #A4A4A4",
"1P    c #A0A0A0",
"1Q    c #9C9C9C",
"1R    c #989898",
"1S    c #949494",
"1T    c #5A7AAD",
"1U    c #587CB6",
"1V    c #728FC1",
"1W    c #708EC0",
"1X    c #85A2CD",
"1Y    c #85A1CD",
"1Z    c #5D83BD",
"1&    c #5F7FAF",
"2     c #7A7A7A",
"20    c #C5C5C5",
"21    c #A6A6A6",
"22    c #A2A2A2",
"23    c #9A9A9A",
"24    c #969696",
"25    c #939393",
"26    c #8F8F8F",
"27    c #8B8B8B",
"28    c #5979AC",
"29    c #577BB5",
"2a    c #6F8DBE",
"2b    c #6E8CBE",
"2c    c #83A0CC",
"2d    c #839FCB",
"2e    c #5C82BC",
"2f    c #5E7EAE",
"2g    c #999999",
"2h    c #959595",
"2i    c #919191",
"2j    c #8D8D8D",
"2k    c #898989",
"2l    c #858585",
"2m    c #828282",
"2n    c #6E6E6E",
"2o    c #5978AB",
"2p    c #567AB4",
"2q    c #6D8BBD",
"2r    c #6B8ABC",
"2s    c #819ECA",
"2t    c #819DCA",
"2u    c #5D7CAD",
"2v    c #B2B2B2",
"2w    c #9B9B9B",
"2x    c #979797",
"2y    c #888888",
"2z    c #848484",
"2A    c #808080",
"2B    c #7C7C7C",
"2C    c #6D6D6D",
"2D    c #5877A9",
"2E    c #5679B3",
"2F    c #6A88BB",
"2G    c #6987BB",
"2H    c #7C9AC8",
"2I    c #7E9BC8",
"2J    c #6E8EC2",
"2K    c #5D7CAC",
"2L    c #757575",
"2M    c #A8A8A8",
"2N    c #8E8E8E",
"2O    c #8A8A8A",
"2P    c #868686",
"2Q    c #7E7E7E",
"2R    c #737373",
"2S    c #6B6B6B",
"2T    c #5876A8",
"2U    c #5578B2",
"2V    c #6886B9",
"2W    c #6685B9",
"2X    c #4B75AF",
"2Y    c #7A97C6",
"2Z    c #748DB6",
"2&    c #747474",
"3     c #9F9F9F",
"30    c #7D7D7D",
"31    c #637EAC",
"32    c #6281B7",
"33    c #6684B8",
"34    c #6483B7",
"35    c #4A75AE",
"36    c #7795C4",
"37    c #768EB6",
"38    c #929292",
"39    c #838383",
"3a    c #7F7F7F",
"3b    c #7B7B7B",
"3c    c #667FAC",
"3d    c #6382B7",
"3e    c #6382B6",
"3f    c #6180B5",
"3g    c #3C6AA7",
"3h    c #466C9F",
"3i    c #456B9F",
"3j    c #3F6BA8",
"3k    c #3D6AA7",
"3l    c #3C669B",
"3m    c #3D669A",
"                                                                ",
"                                                                ",
"     0 1 2 3 4 5 6 7 8 9 a b c d e f g h i j k l m n o p q r    ",
"     s t 4 5 6 7 8 9 a c d e f g h i i j k l n o p u v w x y z  ",
"     A s B C C C C C C C C C C C C C C C C C C C C C C C D E z  ",
"     F G B C C C C C C C C C C C C C C C C C C C C C C C H I J  ",
"     K F L M M M M M M M M M M M M M M M M M M M M M M M N O J  ",
"     P K Q Q Q Q Q Q Q Q Q Q Q Q Q Q Q Q Q Q Q Q Q Q Q Q R S J  ",
"     T U Q Q Q Q Q Q Q Q Q Q Q Q Q Q Q Q Q Q Q Q Q Q Q Q V W J  ",
"     X T Q Q Q Q Q Q Q Q Q Q Q Q Q Q Q Q Q Q Q Q Q Q Q Q Y Z J  ",
"     &0  Q000101010101010101010101010101010101010101 Q Q020304  ",
"    0506 Q000101010101010101010101010101010101010101 Q Q070804  ",
"     q09 Q Q Q Q Q Q Q Q Q Q Q Q Q Q Q Q Q Q Q Q Q Q Q Q0a0b04  ",
"    0c0d Q Q Q Q Q Q Q Q Q Q Q Q Q Q Q Q Q Q Q Q Q Q Q Q0e0f04  ",
"    0g0h Q Q010101010101010101010101010101010101010100 Q0i0j04  ",
"     I0k Q Q010101010101010101010101010101010101010100 Q0l0m04  ",
"    0n O Q Q Q Q Q Q Q Q Q Q Q Q Q Q Q Q Q Q Q Q Q Q Q Q0o0p04  ",
"    0q S Q Q Q Q Q Q Q Q Q Q Q Q Q Q Q Q Q Q Q Q Q Q Q Q0r0s04  ",
"    0t0u0v0v0w0x0y0y0y0y0y0y0y0y0y0y0z0z0z0z0z0z0A0B0C0D0E0F04  ",
"    0G0G0H0I0J0K0K0K0K0K0K0K0K0K0K0K0K0K0K0K0K0K0K0L0M0M0F0N04  ",
"    0O0P0Q0R0K0S0T0U0V0W0X0Y0Z0&1 0&0Z100W110T12130K1415161704  ",
"    1818191a0K1b1c1d1e1f1g1h1i1g1j1 1c1k1l0V1m1n1o0K1p1q1r1s04  ",
"    0b1t1u1v0K1w1x1y0K0K0K0K1e1z1A100W1B1C121D1E1F0K1G1H1I1J    ",
"    1K1K1L1M0K1N1h1i0K0K0K0K0Y1l0V1m1n1O1P1Q1R1S130K1T1U1V1W    ",
"    1X1Y1Z1&0K2 201x0K0K0K0K1B0T21221E2324252627130K28292a2b    ",
"    2c2d2e2f0K1w0&0Y0K0K0K0K1O1P1Q2g2h2i2j2k2l2m2n0K2o2p2q2r    ",
"    2s2t0D2u0K1b2v110K0K0K0K2w2x2526272y2z2A2B1w2C0K2D2E2F2G    ",
"    2H2I2J2K0K2L2M120K0K0K0K2i2N2O2P2m2Q2 1b2R132S0K2T2U2V2W    ",
"    2X2Y0F2Z0K2&3 2w1o1F1F1F2y2z2A301N2L1o2C2S2S2S0K31323334    ",
"      3536370K2R24382N2O2P393a3b1b2R132S2S2S2S2S2S0K3c3d3e3f    ",
" Q      3g3h0K0K1o1o1F13132n2C0K0K2S2S2S2S2S2S2S2S0K3i3j3j3k    ",
" Q Q      3l0K0K0K0K0K0K0K0K0K0K0K0K0K0K0K0K0K0K0K0K3m          "};

