/* XPM */
static char *PackMan2ExtendedFrm_WxStaticBitmap1_XPM[]={
/* PackMan2ExtendedFrm_WxStaticBitmap1 */
"48 48 364 2",
"      c None",
" 0    c #A0670C",
" 1    c #A0670D",
" 2    c #9F670C",
" 3    c #A1670C",
" 4    c #A1670D",
" 5    c #A1680C",
" 6    c #A0670B",
" 7    c #A1680E",
" 8    c #A76F16",
" 9    c #BE8E40",
" a    c #BE8E43",
" b    c #BF8F45",
" c    c #BF9146",
" d    c #C09247",
" e    c #C19348",
" f    c #C4944A",
" g    c #C4964D",
" h    c #C69851",
" i    c #C89A53",
" j    c #C99B55",
" k    c #C99E59",
" l    c #CBA05B",
" m    c #CDA260",
" n    c #CEA462",
" o    c #D0A665",
" p    c #D3A969",
" q    c #D5AB6B",
" r    c #D6AD6D",
" s    c #D6AF6E",
" t    c #C9A56A",
" u    c #BE9451",
" v    c #A0680D",
" w    c #B48439",
" x    c #DBB578",
" y    c #E6C288",
" z    c #E6C289",
" A    c #E7C289",
" B    c #E7C38A",
" C    c #E9C58F",
" D    c #EAC894",
" E    c #EACA9A",
" F    c #EBCD9F",
" G    c #ECD0A4",
" H    c #EDD2A9",
" I    c #EFD5AD",
" J    c #F0D7B3",
" K    c #F1DAB7",
" L    c #F2DDBC",
" M    c #F3DFC1",
" N    c #F4E1C6",
" O    c #F5E4C9",
" P    c #F4E3C9",
" Q    c #EFE0C7",
" R    c #C49C5F",
" S    c #B27412",
" T    c #B5853A",
" U    c #E7D0AB",
" V    c #EACDA0",
" W    c #B78638",
" X    c #A6721E",
" Y    c #A6711D",
" Z    c #A6721D",
" &    c #A6721C",
"0     c #A9741C",
"00    c #AC741E",
"01    c #AE751E",
"02    c #B2781E",
"03    c #B57A1E",
"04    c #B77B1E",
"05    c #B97D1E",
"06    c #BC7E1E",
"07    c #BF811F",
"08    c #C1821F",
"09    c #C4841F",
"0a    c #C7861F",
"0b    c #CA871F",
"0c    c #CC891E",
"0d    c #CF8B1E",
"0e    c #D28D1F",
"0f    c #E0BF8C",
"0g    c #EFDDC3",
"0h    c #C89442",
"0i    c #D68F20",
"0j    c #BC7C16",
"0k    c #B38336",
"0l    c #F3E1C5",
"0m    c #F3DFC0",
"0n    c #E7C38B",
"0o    c #CB9E59",
"0p    c #A26C17",
"0q    c #A36D18",
"0r    c #A46E18",
"0s    c #A77018",
"0t    c #AA7119",
"0u    c #AD7319",
"0v    c #B0751A",
"0w    c #B3771A",
"0x    c #B5791A",
"0y    c #B87B1B",
"0z    c #BB7D1B",
"0A    c #BE7F1C",
"0B    c #C1811C",
"0C    c #C4831D",
"0D    c #C7851D",
"0E    c #CA871E",
"0F    c #D69226",
"0G    c #E8CFA7",
"0H    c #E9D5B8",
"0I    c #CF902E",
"0J    c #D68F21",
"0K    c #C18019",
"0L    c #B07F30",
"0M    c #F2E0C3",
"0N    c #F7E6CC",
"0O    c #E8C690",
"0P    c #DCB576",
"0Q    c #A46E19",
"0R    c #D58F1F",
"0S    c #D89A36",
"0T    c #EBD9BB",
"0U    c #E0C8A1",
"0V    c #D18E23",
"0W    c #D08C20",
"0X    c #BC7C18",
"0Y    c #AE7C2B",
"0Z    c #F1DEC0",
"0&    c #F7E6CD",
"1     c #E6C694",
"10    c #E8C48C",
"11    c #E3C18B",
"12    c #DEBC87",
"13    c #DEBC86",
"14    c #DDBB85",
"15    c #DDBC87",
"16    c #DFBD88",
"17    c #DFBF8B",
"18    c #E0BF8D",
"19    c #E0C08F",
"1a    c #E0C291",
"1b    c #E1C394",
"1c    c #E1C597",
"1d    c #E1C698",
"1e    c #E2C79B",
"1f    c #E3C89E",
"1g    c #E4C9A0",
"1h    c #E4CAA3",
"1i    c #E5CBA2",
"1j    c #E5CBA1",
"1k    c #E6CBA1",
"1l    c #EDD8B8",
"1m    c #F2E4CD",
"1n    c #D7B581",
"1o    c #CA861D",
"1p    c #CA881F",
"1q    c #B77917",
"1r    c #A0680E",
"1s    c #AC7927",
"1t    c #ECD7B6",
"1u    c #D4B380",
"1v    c #AC7826",
"1w    c #D8AF70",
"1x    c #EECC9A",
"1y    c #F0CF9E",
"1z    c #EFCF9D",
"1A    c #EFCF9E",
"1B    c #EFD1A2",
"1C    c #F0D3A7",
"1D    c #F1D6AB",
"1E    c #F2D8B0",
"1F    c #F3DAB5",
"1G    c #F4DDBB",
"1H    c #F4DFC0",
"1I    c #F5E1C5",
"1J    c #F6E4C9",
"1K    c #F7E7CD",
"1L    c #F8E9D3",
"1M    c #F8EBD7",
"1N    c #F9EEDC",
"1O    c #F9EDDB",
"1P    c #E3CCA8",
"1Q    c #AE7212",
"1R    c #BD7E1A",
"1S    c #B37616",
"1T    c #A46D15",
"1U    c #C39A5A",
"1V    c #A6701A",
"1W    c #DBBC8C",
"1X    c #F3E2C9",
"1Y    c #F1D4A9",
"1Z    c #F0D09D",
"1&    c #F0D09C",
"2     c #F0CF9B",
"20    c #F0CF9A",
"21    c #F0CE99",
"22    c #F0CE98",
"23    c #EFCD97",
"24    c #EFCD96",
"25    c #EFCC95",
"26    c #EFCC94",
"27    c #EFCB93",
"28    c #EFCB92",
"29    c #EECA91",
"2a    c #EECA90",
"2b    c #EEC98F",
"2c    c #EEC88E",
"2d    c #EECA92",
"2e    c #F3E0C3",
"2f    c #F0DDBE",
"2g    c #A8731E",
"2h    c #A76D10",
"2i    c #C19753",
"2j    c #F2DBB6",
"2k    c #EEC98E",
"2l    c #EEC88D",
"2m    c #EEC88C",
"2n    c #EDC78B",
"2o    c #EDC78A",
"2p    c #EDC689",
"2q    c #EDC688",
"2r    c #EDC587",
"2s    c #EECC95",
"2t    c #F3E2C8",
"2u    c #ECD4AD",
"2v    c #9F680D",
"2w    c #A5701B",
"2x    c #F1DEC2",
"2y    c #F3DFC2",
"2z    c #EDC586",
"2A    c #ECC485",
"2B    c #ECC484",
"2C    c #ECC383",
"2D    c #ECC382",
"2E    c #ECC281",
"2F    c #EFD0A0",
"2G    c #F4E3CA",
"2H    c #DDBB86",
"2I    c #A0660C",
"2J    c #A2680B",
"2K    c #E5CAA1",
"2L    c #F0CF9D",
"2M    c #ECC280",
"2N    c #EBC17F",
"2O    c #EBC17E",
"2P    c #EBC07D",
"2Q    c #EBC07C",
"2R    c #EBBF7B",
"2S    c #EBBF7A",
"2T    c #F1D6AF",
"2U    c #C49851",
"2V    c #9F660D",
"2W    c #AA6A15",
"2X    c #A1680D",
"2Y    c #C89E61",
"2Z    c #F2DFC1",
"2&    c #AD7926",
"3     c #AA5500",
"30    c #D6B47D",
"31    c #E1C291",
"32    c #E1C290",
"33    c #E1C18F",
"34    c #E1C18E",
"35    c #E1C08D",
"36    c #E0C08C",
"37    c #E0C08B",
"38    c #E0BF8B",
"39    c #E0BF8A",
"3a    c #E0BF89",
"3b    c #E0BE89",
"3c    c #CCA05C",
"3d    c #A0680C",
"3e    c #9F6010",
"3f    c #9F6810",
"3g    c #D6B47F",
"3h    c #C99A52",
"3i    c #BC8126",
"3j    c #C8974E",
"3k    c #D3AD74",
"3l    c #9F680C",
"3m    c #E1C292",
"3n    c #D3A661",
"3o    c #C68B31",
"3p    c #D1A35B",
"3q    c #E2C495",
"3r    c #D6AA66",
"3s    c #CA9038",
"3t    c #D5A761",
"3u    c #DFBD89",
"3v    c #E4C698",
"3w    c #D9AE6C",
"3x    c #CE9640",
"3y    c #D7AB66",
"3z    c #E6C89B",
"3A    c #DCB170",
"3B    c #D29B47",
"3C    c #DBAF6C",
"3D    c #E4C390",
"3E    c #E9CB9E",
"3F    c #E0B676",
"3G    c #D7A14E",
"3H    c #DFB371",
"3I    c #EBCEA2",
"3J    c #E3BA7B",
"3K    c #DBA756",
"3L    c #E2B877",
"3M    c #E9C998",
"3N    c #EDD0A4",
"3O    c #E6BE80",
"3P    c #DFAC5D",
"3Q    c #E5BC7C",
"3R    c #EBCB9B",
"3S    c #EFD3A8",
"3T    c #E9C286",
"3U    c #E4B264",
"3V    c #E9C081",
"3W    c #EECF9E",
"3X    c #9C650B",
"3Y    c #F2D6AB",
"3Z    c #ECC68B",
"3&    c #E8B76C",
"4     c #ECC487",
"40    c #F0D2A3",
"41    c #99640B",
"42    c #000000",
"43    c #915E0A",
"44    c #F3D7AD",
"45    c #EABA6F",
"46    c #EDC68A",
"47    c #F1D3A4",
"48    c #8F5D0A",
"49    c #89590A",
"4a    c #F2D6A9",
"4b    c #F0D1A1",
"4c    c #86570A",
"4d    c #6A4408",
"4e    c #DDB87E",
"4f    c #F2D6AA",
"4g    c #F2D5A9",
"4h    c #F2D5A8",
"4i    c #F2D5A7",
"4j    c #F2D4A6",
"4k    c #F1D4A5",
"4l    c #F1D3A5",
"4m    c #F1D3A3",
"4n    c #DBB477",
"4o    c #654108",
"4p    c #030300",
"4q    c #9A640C",
"4r    c #A1690F",
"4s    c #C4974E",
"4t    c #D1A765",
"4u    c #D0A664",
"4v    c #D0A663",
"4w    c #D0A563",
"4x    c #D0A562",
"4y    c #CFA461",
"4z    c #CFA460",
"4A    c #CFA45F",
"4B    c #C39549",
"4C    c #402A04",
"4D    c #845409",
"4E    c #9E660C",
"4F    c #825309",
"4G    c #3C2704",
"                                                                                                ",
"                                                                                                ",
"                                                                                                ",
"                                                                                                ",
"                                                                                                ",
"                                                                                                ",
"                                                                                                ",
"                                                                                                ",
"                                                                                                ",
"                       0 0 0 1 2 0 3 0 1 1 4 0 0 5 0 0 0 0 0 0 0 0 0 6 0 0                      ",
"                   0 0 7 8 9 a b c d e f g h i j k l m n o p q r s t u 0 0 0 0                  ",
"                 0 v 0 w x y z A A A B C D E F G H I J K L M N O O P Q R S 0 0 0 0              ",
"               0 1 T U V y W X Y Z &0 000102030405060708090a0b0c0d0e0f0g0h0i0j 0 0 0            ",
"             0 10k0l0m0n0o0p0q0q0q0r0s0t0u0v0w0x0y0z0A0B0C0D0E0c0d0e0F0G0H0I0J0K 0 0 0          ",
"           0 v0L0M0N0O0P0Q0q0q0q0q0r0s0t0u0v0w0x0y0z0A0B0C0D0E0c0d0e0R0S0T0U0V0W0X 0 0 0        ",
"         0 v0Y0Z0&1 101112121213141415161718191a1b1c1d1e1f1g1h1i1i1j1j1k1l1m1n1o1p1q 0 0 0      ",
"       01r1s1t1u1v1w1x1y1z1A1A1A1A1A1B1C1D1E1F1G1H1I1J1K1L1M1N1N1N1N1N1N1N1O1P 01Q1R1S 0 0 0    ",
"     0 71T1U1V 0 11W1X1Y1Z1Z1Z1Z1Z1&2 202121222324252526272829292a2b2b2c2d2e2f2g 0 02h2h 0 0 0  ",
"   0 7 0 0 0 0 12i1X2j2 202021222324252526272829292a2b2k2l2l2m2n2o2p2p2q2r2s2t2u 1 0 0 0 0 0 0 0",
" 0 7 0 1 0 02v2w2x2y23242526272828292a2b2k2l2l2m2n2o2p2p2q2r2z2A2A2B2C2D2E2E2F2G2H 02I 0 0 0 0 0",
" 0 0 0 0  2J 02K1X2L292a2b2k2k2l2m2n2o2o2p2q2r2z2A2A2B2C2D2E2E2M2N2O2P2P2Q2R2S2T1X2U 32V   0 0 0",
"        2W2X2Y2G2G2G2G2G2G2G2G2G2G2G2G2G2G2G2G2G2G2G2G2G2G2G2G2G2G2G2G2G2G2G2G2G2G2Z2&2X3       ",
"         3 0303131313232323333333334343434353535353536363637383838393939393a3b3b3b3b3c 0 0      ",
"         1 0 0 0 0 0 0 0 0 0 0 0 0 0 0 0 0 0 0 0 0 0 0 0 0 0 0 0 0 0 0 0 0 0 0 0 0 0 0 03d      ",
"        3e3f3f 2 23g3h3i3i3i3i3i3i3i3i3i3i3i3i3i3i3i3i3i3i3i3i3i3i3i3i3i3i3j3k 2 23f3f3f2W      ",
"              3l 03m3n3o3o3o3o3o3o3o3o3o3o3o3o3o3o3o3o3o3o3o3o3o3o3o3o3o3o3p2H 03l              ",
"              3l 03q3r3s3s3s3s3s3s3s3s3s3s3s3s3s3s3s3s3s3s3s3s3s3s3s3s3s3s3t3u 03l              ",
"              3l 03v3w3x3x3x3x3x3x3x3x3x3x3x3x3x3x3x3x3x3x3x3x3x3x3x3x3x3x3y35 03l              ",
"              3l 03z3A3B3B3B3B3B3B3B3B3B3B3B3B3B3B3B3B3B3B3B3B3B3B3B3B3B3B3C3D 03l              ",
"              3l 03E3F3G3G3G3G3G3G3G3G3G3G3G3G3G3G3G3G3G3G3G3G3G3G3G3G3G3G3H1  03l              ",
"              3l 03I3J3K3K3K3K3K3K3K3K3K3K3K3K3K3K3K3K3K3K3K3K3K3K3K3K3K3K3L3M 03l              ",
"              3l 03N3O3P3P3P3P3P3P3P3P3P3P3P3P3P3P3P3P3P3P3P3P3P3P3P3P3P3P3Q3R 03l              ",
"              3l 03S3T3U3U3U3U3U3U3U3U3U3U3U3U3U3U3U3U3U3U3U3U3U3U3U3U3U3U3V3W 03l              ",
"              3X 03Y3Z3&3&3&3&3&3&3&3&3&3&3&3&3&3&3&3&3&3&3&3&3&3&3&3&3&3&4 40 04142            ",
"          424243 0442c45454545454545454545454545454545454545454545454545454647 048424242        ",
"        42424249 04a2645454545454545454545454545454545454545454545454545452b4b 04c42424242      ",
"        4242424d 04e3Y4f4f4f4f4a4a4g4g4h4h4h4h4i4j4j4j4j4k4k4l4l4l474747474m4n 04o42424242      ",
"      424242424p4q4r4s4t4t4u4u4u4u4v4v4v4w4w4w4w4x4x4x4x4y4y4y4z4z4z4z4A4A4B4r4q4p42424242      ",
"      42424242424C4D4E 0 0 0 0 0 0 0 0 0 0 0 0 0 0 0 0 0 0 0 0 0 0 0 0 0 04E4F4G4242424242      ",
"        4242424242424242424242424242424242424242424242424242424242424242424242424242424242      ",
"          424242424242424242424242424242424242424242424242424242424242424242424242424242        ",
"            424242424242424242424242424242424242424242424242424242424242424242424242            ",
"                                                                                                ",
"                                                                                                ",
"                                                                                                ",
"                                                                                                ",
"                                                                                                ",
"                                                                                                "};

