/* XPM */
static char *PackMan2ExtendedFrm_btnAbout_XPM[]={
/* PackMan2ExtendedFrm_btnAbout */
"32 32 215 2",
"      c None",
" 0    c #FCAF3E",
" 1    c #FFD599",
" 2    c #FCC676",
" 3    c #FCC472",
" 4    c #FCC879",
" 5    c #FCC46F",
" 6    c #FCBA5A",
" 7    c #FBB54E",
" 8    c #FAB34B",
" 9    c #FBB853",
" a    c #FDD499",
" b    c #FDDAA7",
" c    c #FDD8A2",
" d    c #FDD59A",
" e    c #FDD08F",
" f    c #FDCB82",
" g    c #FCC573",
" h    c #FCBE63",
" i    c #FCB853",
" j    c #FCB042",
" k    c #FBAF3E",
" l    c #FCC36F",
" m    c #FDDFB2",
" n    c #FDE3BB",
" o    c #FDE6C0",
" p    c #FEF1D2",
" q    c #FEF9E3",
" r    c #FDF9DF",
" s    c #FDF6D4",
" t    c #FDF3C4",
" u    c #FCE198",
" v    c #FCBF61",
" w    c #FCB44A",
" x    c #FCAE3E",
" y    c #FDE3BC",
" z    c #FEE8C8",
" A    c #FEF7E6",
" B    c #FEFDF8",
" C    c #FEFDF5",
" D    c #FEFCF0",
" E    c #FEFBE9",
" F    c #FEFAE0",
" G    c #FDF9D5",
" H    c #FDF7C9",
" I    c #FDF3B3",
" J    c #FCDA7A",
" K    c #FBAE3E",
" L    c #FCAE3D",
" M    c #FBB956",
" N    c #FDDFB4",
" O    c #FEFAEE",
" P    c #FEFEFB",
" Q    c #FEFEF9",
" R    c #FEFCEC",
" S    c #FEF9D5",
" T    c #FDF7C0",
" U    c #FDF5B3",
" V    c #FDF4AB",
" W    c #FDF5B6",
" X    c #FDF5B5",
" Y    c #FDF3A4",
" Z    c #FCD769",
" &    c #FBAF3D",
"0     c #FDE3BD",
"00    c #FEF8E8",
"01    c #FEFEFC",
"02    c #FEFDF4",
"03    c #FEFBE0",
"04    c #FEF9CF",
"05    c #FDF6BE",
"06    c #FDF4AC",
"07    c #FDF29A",
"08    c #FDF089",
"09    c #FCF08B",
"0a    c #FDF29D",
"0b    c #FCEF89",
"0c    c #FCCE57",
"0d    c #FCD495",
"0e    c #FDDBA9",
"0f    c #FDE6C2",
"0g    c #FEFEF8",
"0h    c #FEFEFA",
"0i    c #FEFDF0",
"0j    c #FCEE77",
"0k    c #FCEE7B",
"0l    c #FCEE81",
"0m    c #FCEC70",
"0n    c #FCB33F",
"0o    c #F9B13D",
"0p    c #FCC471",
"0q    c #FDD9A5",
"0r    c #FEF3D8",
"0s    c #FEFDF6",
"0t    c #FEFCEE",
"0u    c #FEFBE2",
"0v    c #FEFBE1",
"0w    c #FEF9D6",
"0x    c #FEF8C9",
"0y    c #FDF6B9",
"0z    c #FDF4A8",
"0A    c #FDF298",
"0B    c #FCEF86",
"0C    c #FCED75",
"0D    c #FCEB64",
"0E    c #FCEC71",
"0F    c #FCEC6B",
"0G    c #FCC84A",
"0H    c #FBAE3D",
"0I    c #FCC474",
"0J    c #FDD69D",
"0K    c #FEF9E4",
"0L    c #FEFDF1",
"0M    c #FEF9D1",
"0N    c #FEF9D0",
"0O    c #FDF5B1",
"0P    c #FDF3A1",
"0Q    c #FDF191",
"0R    c #FCEF81",
"0S    c #FCED70",
"0T    c #FCEB60",
"0U    c #FCEA5C",
"0V    c #FCEB63",
"0W    c #FCDD52",
"0X    c #FCC97C",
"0Y    c #FDD192",
"0Z    c #FEF9E0",
"0&    c #FEFCEA",
"1     c #FDF7C3",
"10    c #FDF7BF",
"11    c #FDF3A5",
"12    c #FCEE7A",
"13    c #FCEC6A",
"14    c #FCEA5A",
"15    c #FCE954",
"16    c #FCE24E",
"17    c #FCC571",
"18    c #FDCC85",
"19    c #FDF8DA",
"1a    c #FDF4AE",
"1b    c #FDF4AA",
"1c    c #FDF3A2",
"1d    c #FDF08C",
"1e    c #FCEF7F",
"1f    c #FCED71",
"1g    c #FCEB62",
"1h    c #FCE953",
"1i    c #FCE951",
"1j    c #FCDF4C",
"1k    c #FCB13E",
"1l    c #FBBB5D",
"1m    c #FDF4C9",
"1n    c #FDF9D7",
"1o    c #FDF29C",
"1p    c #FDF192",
"1q    c #FDF08A",
"1r    c #FCEF80",
"1s    c #FCED73",
"1t    c #FCEB66",
"1u    c #FCEA58",
"1v    c #FCE94F",
"1w    c #FCE950",
"1x    c #FCDB4B",
"1y    c #FCAF3D",
"1z    c #FBB652",
"1A    c #FCBF66",
"1B    c #FCE19C",
"1C    c #FDF8CB",
"1D    c #FDF4B1",
"1E    c #FDF08B",
"1F    c #FCF088",
"1G    c #FCEF82",
"1H    c #FCC946",
"1I    c #F9B955",
"1J    c #FCB956",
"1K    c #FCC469",
"1L    c #FDF6BD",
"1M    c #FDF5B7",
"1N    c #FCEF8A",
"1O    c #FCEE79",
"1P    c #FCED72",
"1Q    c #FCE54E",
"1R    c #FCB13F",
"1S    c #FAAD3D",
"1T    c #FCB044",
"1U    c #FCB54D",
"1V    c #FCDB84",
"1W    c #FDF3A8",
"1X    c #FDF39F",
"1Y    c #FCEC73",
"1Z    c #FCEB65",
"1&    c #FCEB61",
"2     c #FCEA5B",
"20    c #FCCC47",
"21    c #FCB041",
"22    c #FCDB77",
"23    c #FDF08E",
"24    c #FCEF85",
"25    c #FCEC6F",
"26    c #FCE952",
"27    c #FCD148",
"28    c #FCD363",
"29    c #FCEA75",
"2a    c #FCEC6E",
"2b    c #FCE84F",
"2c    c #FCCC46",
"2d    c #FCB242",
"2e    c #FCCC53",
"2f    c #FCDD56",
"2g    c #FCDF50",
"2h    c #FCE24D",
"2i    c #FCDC4B",
"2j    c #FCC845",
"2k    c #FCB43F",
"2l    c #FAB13E",
"                               0 0                              ",
"                               0 0                              ",
"                               0 0 0                            ",
"                             0 0 0 0                            ",
"         0 0                 0 0 0 0                 0 0        ",
"         0 0 0 0           0 0 0 0 0 0           0 0 0 0        ",
"           0 0 0 0 0     1 2 3 4 5 6 7 8     0 0 0 0 0          ",
"           0 0 0 0 0 9 a b c d e f g h i j k 0 0 0 0 0          ",
"             0 0 0 l m n o p q r s t u v w 0 x 0 0 0            ",
"             0 0 l y z A B C D E F G H I J 0 K L 0 0            ",
"               M N z O P Q R S T U V W X Y Z 0 k &              ",
"               c0 00 P0102030405060708090a0b0c 0 0              ",
"            0d0e0f0g0h C0i0304050607080j0k0l0m0n 00o            ",
"           00p0q0r0s0t0u0v0w0x0y0z0A0B0C0D0E0F0G 00H 0          ",
"     0 0 0 00I0J0K0L0w0M0N0x050O0P0Q0R0S0T0U0V0W 0 & 0 0 0      ",
" 0 0 0 0 0 00X0Y0Z0&1  T100y0O110A08121314151416 0 k 0 0 0 0 0 0",
" 0 0 0 0 0 01718190u0O1a1a1b1c0A1d1e1f1g1h1h1i1j 01k 0 0 0 0 0 0",
"       0 0 01l 21m1n V1o1o0A1p1q1r1s1t1u1v1w1v1x 01y 0 0 0 0    ",
"           01z1A1B1C1D1E1E1F1G0k1f1t141v1v1v1v1H 0 k 0          ",
"            1I1J1K1L1M1N1O0j1P0F0V1u1v1v1v1v1Q1R 01S            ",
"              1T1U1V1W1X1Y1Z1&2 1h1v1v1v1v1v20 0 L              ",
"               k 021222324251u261w1w1v1v1v27 0 00H              ",
"             0 01y k 028292a1Z0U1h1v1v2b2c 0 K L 0 0            ",
"             0 0 0 0 0 02d2e2f2g2h2i2j2k 0 & 0 0 0 0            ",
"           0 0 0 0 00H 0 0 0 0 0 0 0 0 01y K 0 0 0 0 0          ",
"           0 0 0 0 0    2l0H1y1k k k K2l     0 0 0 0 0          ",
"         0 0 0 0           0 0 0 0 0 0           0 0 0 0        ",
"         0 0                 0 0 0 0                 0 0        ",
"                             0 0 0 0                            ",
"                             0 0 0                              ",
"                               0 0                              ",
"                               0 0                              "};

