/* XPM */
static char *PackMan2ExtendedFrm_btnExit_XPM[]={
/* PackMan2ExtendedFrm_btnExit */
"32 32 320 2",
"      c None",
" 0    c #000000",
" 1    c #010101",
" 2    c #B2B2B2",
" 3    c #8D8D8D",
" 4    c #838383",
" 5    c #7D7D7D",
" 6    c #777777",
" 7    c #717171",
" 8    c #6D6D6D",
" 9    c #676767",
" a    c #636363",
" b    c #606060",
" c    c #5C5C5C",
" d    c #595959",
" e    c #565656",
" f    c #545454",
" g    c #181818",
" h    c #191919",
" i    c #121212",
" j    c #B7B7B7",
" k    c #949494",
" l    c #898989",
" m    c #727272",
" n    c #686868",
" o    c #646464",
" p    c #616161",
" q    c #5E5E5E",
" r    c #5B5B5B",
" s    c #585858",
" t    c #1A1A1A",
" u    c #1B1B1B",
" v    c #BDBDBD",
" w    c #989898",
" x    c #8E8E8E",
" y    c #878787",
" z    c #818181",
" A    c #7C7C7C",
" B    c #767676",
" C    c #696969",
" D    c #666666",
" E    c #1C1C1C",
" F    c #1D1D1D",
" G    c #C3C3C3",
" H    c #9D9D9D",
" I    c #939393",
" J    c #8C8C8C",
" K    c #868686",
" L    c #7B7B7B",
" M    c #6F6F6F",
" N    c #6B6B6B",
" O    c #656565",
" P    c #5D5D5D",
" Q    c #1E1E1E",
" R    c #1F1F1F",
" S    c #C9C9C9",
" T    c #A3A3A3",
" U    c #929292",
" V    c #8B8B8B",
" W    c #737373",
" X    c #6C6C6C",
" Y    c #202020",
" Z    c #212121",
" &    c #A70000",
"0     c #A60000",
"00    c #A7A7A7",
"01    c #9E9E9E",
"02    c #828282",
"03    c #787878",
"04    c #757575",
"05    c #707070",
"06    c #222222",
"07    c #232323",
"08    c #A40000",
"09    c #AA1010",
"0a    c #270000",
"0b    c #CACACA",
"0c    c #A8A8A8",
"0d    c #A0A0A0",
"0e    c #9B9B9B",
"0f    c #979797",
"0g    c #797979",
"0h    c #242424",
"0i    c #252525",
"0j    c #E9A4A4",
"0k    c #A61515",
"0l    c #C19A9A",
"0m    c #A9A9A9",
"0n    c #A1A1A1",
"0o    c #9C9C9C",
"0p    c #909090",
"0q    c #7E7E7E",
"0r    c #262626",
"0s    c #272727",
"0t    c #EFB4B4",
"0u    c #E79D9D",
"0v    c #AF2020",
"0w    c #A88181",
"0x    c #A2A2A2",
"0y    c #999999",
"0z    c #959595",
"0A    c #919191",
"0B    c #888888",
"0C    c #848484",
"0D    c #7F7F7F",
"0E    c #6A6A6A",
"0F    c #282828",
"0G    c #292929",
"0H    c #A50000",
"0I    c #AB0A0A",
"0J    c #EDA7A7",
"0K    c #E58282",
"0L    c #E59393",
"0M    c #AF2222",
"0N    c #A37C7C",
"0O    c #9F9F9F",
"0P    c #969696",
"0Q    c #858585",
"0R    c #2A2A2A",
"0S    c #2B2B2B",
"0T    c #EA9A9A",
"0U    c #EB9C9C",
"0V    c #EB9E9E",
"0W    c #EB9F9F",
"0X    c #EA9C9C",
"0Y    c #E47C7C",
"0Z    c #DE5B5B",
"0&    c #E17070",
"1     c #E28787",
"10    c #AF2323",
"11    c #A17A7A",
"12    c #8F8F8F",
"13    c #AEAEAE",
"14    c #2C2C2C",
"15    c #2D2D2D",
"16    c #E88F8F",
"17    c #DA4848",
"18    c #DB4C4C",
"19    c #DC5050",
"1a    c #DC5151",
"1b    c #DC5252",
"1c    c #DB4D4D",
"1d    c #DE5C5C",
"1e    c #DF7979",
"1f    c #AF2525",
"1g    c #9F7878",
"1h    c #2E2E2E",
"1i    c #2F2F2F",
"1j    c #E68484",
"1k    c #D83D3D",
"1l    c #D94141",
"1m    c #D94444",
"1n    c #D94545",
"1o    c #D83E3E",
"1p    c #DA4A4A",
"1q    c #DB6969",
"1r    c #AF2424",
"1s    c #9C7575",
"1t    c #B9B9B9",
"1u    c #303030",
"1v    c #313131",
"1w    c #E37474",
"1x    c #D32323",
"1y    c #D11B1B",
"1z    c #CF1111",
"1A    c #D01414",
"1B    c #D22020",
"1C    c #D42C2C",
"1D    c #D63535",
"1E    c #D63333",
"1F    c #D52F2F",
"1G    c #D83F3F",
"1H    c #CF5050",
"1I    c #A51818",
"1J    c #8A8A8A",
"1K    c #AAAAAA",
"1L    c #ABABAB",
"1M    c #323232",
"1N    c #333333",
"1O    c #CC0000",
"1P    c #CC0202",
"1Q    c #CD0909",
"1R    c #CF1515",
"1S    c #CF3737",
"1T    c #AA1616",
"1U    c #808080",
"1V    c #343434",
"1W    c #CF1313",
"1X    c #CE3232",
"1Y    c #A91212",
"1Z    c #A07979",
"1&    c #9A9A9A",
"2     c #747474",
"20    c #353535",
"21    c #363636",
"22    c #D94242",
"23    c #D84040",
"24    c #D83C3C",
"25    c #D73838",
"26    c #CD2D2D",
"27    c #A80F0F",
"28    c #373737",
"29    c #383838",
"2a    c #A80505",
"2b    c #CC2727",
"2c    c #A60B0B",
"2d    c #946D6D",
"2e    c #393939",
"2f    c #3A3A3A",
"2g    c #D42828",
"2h    c #CA2121",
"2i    c #8F6868",
"2j    c #3B3B3B",
"2k    c #3C3C3C",
"2l    c #C91B1B",
"2m    c #9F0303",
"2n    c #3D3D3D",
"2o    c #3E3E3E",
"2p    c #A40202",
"2q    c #656564",
"2r    c #3E3E3C",
"2s    c #3A3A38",
"2t    c #3B3B39",
"2u    c #3D3D3B",
"2v    c #40403E",
"2w    c #41413F",
"2x    c #A10000",
"2y    c #810000",
"2z    c #B9B9B8",
"2A    c #A5A5A5",
"2B    c #777870",
"2C    c #4B4D3C",
"2D    c #40422F",
"2E    c #424430",
"2F    c #434532",
"2G    c #454734",
"2H    c #464834",
"2I    c #484A36",
"2J    c #484A37",
"2K    c #494B38",
"2L    c #4A4C39",
"2M    c #CACAC8",
"2N    c #ADADAD",
"2O    c #898A7D",
"2P    c #585B3B",
"2Q    c #474A25",
"2R    c #484C26",
"2S    c #4A4E29",
"2T    c #4B4F2A",
"2U    c #4D512B",
"2V    c #4E522D",
"2W    c #4F532E",
"2X    c #51552F",
"2Y    c #515530",
"2Z    c #525631",
"2&    c #535731",
"3     c #CBCBC9",
"30    c #9A9B8C",
"31    c #63683C",
"32    c #4E541D",
"33    c #4F551E",
"34    c #515620",
"35    c #525721",
"36    c #535822",
"37    c #545A23",
"38    c #555B24",
"39    c #565C26",
"3a    c #585D27",
"3b    c #595E28",
"3c    c #5A5F29",
"3d    c #5A6029",
"3e    c #5B602A",
"3f    c #B8B8B8",
"3g    c #A8AA99",
"3h    c #70753E",
"3i    c #575E16",
"3j    c #585F17",
"3k    c #596018",
"3l    c #5A6119",
"3m    c #5A6219",
"3n    c #5B631B",
"3o    c #5C641B",
"3p    c #5D641C",
"3q    c #5E661D",
"3r    c #5F661E",
"3s    c #60671F",
"3t    c #60681F",
"3u    c #616920",
"3v    c #626921",
"3w    c #626A21",
"3x    c #CCCCC9",
"3y    c #B1B3A1",
"3z    c #7B8342",
"3A    c #606A10",
"3B    c #616A11",
"3C    c #626B11",
"3D    c #626C12",
"3E    c #636C12",
"3F    c #636C13",
"3G    c #646D14",
"3H    c #646E14",
"3I    c #656E15",
"3J    c #656F15",
"3K    c #666F16",
"3L    c #677016",
"3M    c #677017",
"3N    c #687117",
"3O    c #687118",
"3P    c #687218",
"3Q    c #697219",
"3R    c #B8BAA5",
"3S    c #888F48",
"3T    c #6C770C",
"3U    c #6C770D",
"3V    c #6D780D",
"3W    c #6D780E",
"3X    c #6E790E",
"3Y    c #6E7A0F",
"3Z    c #6F7A0F",
"3&    c #030303",
"                                                                ",
"                 0 1 0 0 0 0 0 0 0 0 0 0 0 0 0 0 0 0 0 0 0 1 0  ",
"                 1 2 3 4 5 6 7 8 9 a b c d e f g g g g h h i 1  ",
"                 0 j k l 4 5 6 m 8 n o p q r s g h t t u u u 0  ",
"                 0 v w x y z A B 7 8 C D a b r t u E E F F F 0  ",
"                 0 G H I J K z L B m M N n O P E F Q Q R R R 0  ",
"                 0 S T w U V K z A 6 W M X C p Q R R Y Z Z Z 0  ",
"             &0  0 S0001 w U J y02 5030405 8 o Y Z Z06060707 0  ",
"            08090a0b0c0d0e0f U J y 4 50g04 7 D0607070h0h0i0i 0  ",
"            080j0k0l0m0n0o w k0p V y 40q0g04 n070h0i0r0r0s0s 0  ",
"            080t0u0v0w0x010y0z0A J0B0C0D L 60E0i0r0s0F0F0G0G 0  ",
"  0H080808080I0J0K0L0M0N0O0e0P U x l0Q0Q0P y N0s0F0G0R0R0S0S 0  ",
"  080T0U0V0W0X0Y0Z0&1 10110o w I12 V K 4 I13 y0G0R0S0S141415 0  ",
"  08161718191a1b191c1d1e1f1g0y0z0p J0B 4 z 2 W0S1415151h1h1i 0  ",
"  081j1k1l1m1n1n1m1l1o1p1q1r1s0P0A 3 l K1t0y0E14151h1i1u1u1v 0  ",
"  081w1x1y1z1A1B1C1D1E1F1G1H1I0f I x1J1K1L m051h1i1u1v1M1M1N 0  ",
"  081b1O1O1O1O1O1O1P1Q1R1S1T1g w k0p V w1U0q m1u1v1M1N1V1V1V 0  ",
"  081p1O1O1O1O1O1O1O1W1X1Y1Z011&0z0A 30B0C1U2 1v1M1V20212121 0  ",
"  0822231o24251y1O1A26271s0y0e0e0f U x1J0Q z B1N1V2021282929 0  ",
"  08080808082a1F1A2b2c2d k0P0f0e w I12 V K02 61V2128292e2f2f 0  ",
"   0 0 0 0 0082g2h2c2i J I0z w0e0y0z0p J0B 40321282e2f2j2k2k 0  ",
"   0 0 0 0 0082l2m1g J120z w0e011&0P U 3 l0Q B282e2f2k2n2o2o 0  ",
"     0 0 0 0082p0a1K0z0f0e0O T0d0o0f I12 l2q2r2s2t2u2r2v2w2w 0  ",
"       0 0 02x2y 02z0d T001K2A0n H w0f2B2C2D2E2F2G2H2I2J2K2L 0  ",
"             0 0 02M2N1K1K1K000x2A2O2P2Q2R2S2T2U2V2W2X2Y2Z2& 0  ",
"                 03 2N1K1K1K 2303132333435363738393a3b3c3d3e 0  ",
"                 03 2N1L3f3g3h3i3j3k3l3m3n3o3p3q3r3s3t3u3v3w 0  ",
"                 03x v3y3z3A3B3C3D3E3F3G3H3I3J3K3L3M3N3O3P3Q 0  ",
"                 13R3S3T3T3T3T3U3V3V3V3V3W3X3X3X3X3X3Y3Z3Z3V3&  ",
"                 0 1 0 0 0 0 0 0 0 0 0 0 0 0 0 0 0 0 0 0 03&3&  ",
"                                                                ",
"                                                                "};

