/* XPM */
static char *PackMan2ExtendedFrm_ID_MNU_RELOADDATABASE_1028_XPM[]={
/* PackMan2ExtendedFrm_ID_MNU_RELOADDATABASE_1028 */
"16 16 99 2",
"      c None",
" 0    c #3465A4",
" 1    c #3A69A7",
" 2    c #3A6AA7",
" 3    c #3667A5",
" 4    c #3969A7",
" 5    c #3565A4",
" 6    c #3868A6",
" 7    c #6890C0",
" 8    c #8FB0D3",
" 9    c #A8C2DF",
" a    c #A8C1DE",
" b    c #93B1D4",
" c    c #5F87B9",
" d    c #3767A5",
" e    c #3566A4",
" f    c #3969A6",
" g    c #8CADD3",
" h    c #9DBDDC",
" i    c #A1BEDD",
" j    c #B4CBE5",
" k    c #BFD3E9",
" l    c #CCDDEE",
" m    c #D5E2F0",
" n    c #BFD2E7",
" o    c #4B77AF",
" p    c #4371AB",
" q    c #6990C0",
" r    c #7298C5",
" s    c #3C6BA8",
" t    c #5D85B7",
" u    c #A1BBD9",
" v    c #D8E4F1",
" w    c #DBE6F2",
" x    c #DDE8F3",
" y    c #88A7CE",
" z    c #C8D8EA",
" A    c #4170AB",
" B    c #3C6CA9",
" C    c #3869A6",
" D    c #6188B9",
" E    c #CDDBEB",
" F    c #E2EBF5",
" G    c #E6EEF6",
" H    c #6891C7",
" I    c #C7D7E9",
" J    c #C6D8EB",
" K    c #E3ECF5",
" L    c #3A6AA6",
" M    c #4C79B3",
" N    c #769DCF",
" O    c #5783BB",
" P    c #8FACD0",
" Q    c #E7EEF6",
" R    c #4774AD",
" S    c #4C77AF",
" T    c #4C78AF",
" U    c #E5EDF5",
" V    c #E5EDF6",
" W    c #E4ECF5",
" X    c #9CB7D7",
" Y    c #3768A6",
" Z    c #7EA4D5",
" &    c #7299CD",
"0     c #C4D7EB",
"00    c #C9D9EA",
"01    c #3566A5",
"02    c #6C95C9",
"03    c #537FB7",
"04    c #E4EDF5",
"05    c #C1D2E6",
"06    c #4D79B0",
"07    c #3C6BA9",
"08    c #4F7CB6",
"09    c #3768A5",
"0a    c #95B2D4",
"0b    c #E0E9F4",
"0c    c #CCDCED",
"0d    c #8FADD2",
"0e    c #4C78B0",
"0f    c #3D6DA9",
"0g    c #5B84B7",
"0h    c #4E7AB1",
"0i    c #B4CAE3",
"0j    c #C9DAEC",
"0k    c #BCD1E7",
"0l    c #B0C9E3",
"0m    c #A0BEDE",
"0n    c #88ABD2",
"0o    c #82A5CE",
"0p    c #8EAED3",
"0q    c #3767A6",
"0r    c #5580B5",
"0s    c #84A6CE",
"0t    c #97B6D8",
"0u    c #99B9DB",
"0v    c #8AACD3",
"0w    c #6D94C2",
"0x    c #3B6BA7",
"       0 1 2 3 4 2 0 0       0 0",
"     5 6 7 8 9 a b c d 0   e 0 0",
"   0 f g h i j k l m n o 3 p e 0",
"   4 q r s e 2 t u v w x y z 2 0",
"   6 A B 2 0 0 0 C D E F G G 2 0",
"   5 2 H d 0       0 e I J K L 0",
"   0 M N O 0     0 6 P Q w G L 0",
"   0             0 0 R S S T 0 0",
"   0 0 0 0 0 0 0 0 0 0 0 0 0 0  ",
"   0 U V W X Y 0         Z & 0 0",
"   e G0 00 0 0       0010203 0 0",
"   d G K040506 C 0   00708 209  ",
"   6 v0a0b x0c0d0e01 f f0f0e 2  ",
"   d0g 30h0i0j0k0l0m0n0o0p 6 0  ",
"   0 3   00q0r0s0t0u0v0w 6 e    ",
"   0 0     0 0 2 C e 20x 0      "};

