/* XPM */
static char *PackMan2ExtendedFrm_btnVerify_XPM[]={
/* PackMan2ExtendedFrm_btnVerify */
"32 32 283 2",
"      c None",
" 0    c #8A8A8A",
" 1    c #8B8B8B",
" 2    c #989898",
" 3    c #CBCBCB",
" 4    c #E3E3E3",
" 5    c #F4F4F4",
" 6    c #FDFDFD",
" 7    c #F8F8F8",
" 8    c #EBEBEB",
" 9    c #D6D6D6",
" a    c #B5B5B5",
" b    c #8D8D8D",
" c    c #C1C1C1",
" d    c #FAFAFA",
" e    c #F1F1F1",
" f    c #EAEAEA",
" g    c #E4E4E4",
" h    c #DEDEDE",
" i    c #E9E9E9",
" j    c #F0F0F0",
" k    c #FCFCFC",
" l    c #E6E6E6",
" m    c #9E9E9E",
" n    c #959595",
" o    c #F7F7F7",
" p    c #E2E2E2",
" q    c #BEC5CF",
" r    c #6D8DB4",
" s    c #4672AB",
" t    c #3365A4",
" u    c #4773AB",
" v    c #6E8EB5",
" w    c #C3CAD4",
" x    c #F5F5F5",
" y    c #E8E8E8",
" z    c #DADBDB",
" A    c #7E99BA",
" B    c #3265A4",
" C    c #4777B2",
" D    c #5585BD",
" E    c #6694C7",
" F    c #819BBC",
" G    c #E9EAEA",
" H    c #B6B6B6",
" I    c #3A6CAA",
" J    c #6795C7",
" K    c #A8C4E2",
" L    c #C4D7EB",
" M    c #D4E1F0",
" N    c #CCDCEE",
" O    c #B4CBE6",
" P    c #91B4DA",
" Q    c #4B75AC",
" R    c #F1F2F2",
" S    c #EDEDED",
" T    c #9C9C9C",
" U    c #979797",
" V    c #E1E1E1",
" W    c #809ABB",
" X    c #80A8D3",
" Y    c #E5EDF6",
" Z    c #E7EEF7",
" &    c #E4ECF6",
"0     c #DEE9F4",
"00    c #D8E4F2",
"01    c #D1DFEF",
"02    c #A5C1E1",
"03    c #719ECE",
"04    c #869FBF",
"05    c #FBFBFB",
"06    c #D9D9D9",
"07    c #BCBCBC",
"08    c #C0C7D1",
"09    c #C8D9EC",
"0a    c #E2EBF5",
"0b    c #E8EFF7",
"0c    c #EDF2F9",
"0d    c #E7EEF6",
"0e    c #E1EAF4",
"0f    c #DAE6F2",
"0g    c #D3E1F0",
"0h    c #CADBED",
"0i    c #87ADD7",
"0j    c #3266A4",
"0k    c #CED5DF",
"0l    c #ECECEC",
"0m    c #A5A5A5",
"0n    c #CCCCCC",
"0o    c #7592B7",
"0p    c #A0BEDF",
"0q    c #D9E5F2",
"0r    c #E0E9F4",
"0s    c #E6EEF6",
"0t    c #E1EBF5",
"0u    c #DCE7F3",
"0v    c #D5E2F1",
"0w    c #74A1CF",
"0x    c #729FD0",
"0y    c #7F9BBD",
"0z    c #EEEEEE",
"0A    c #D7D7D7",
"0B    c #4C76AC",
"0C    c #B9CFE7",
"0D    c #E3ECF5",
"0E    c #DFE9F4",
"0F    c #DBE6F2",
"0G    c #D4E2F0",
"0H    c #BAD1E7",
"0I    c #72A0CF",
"0J    c #729FCF",
"0K    c #5685BC",
"0L    c #517AAE",
"0M    c #C7C7C7",
"0N    c #DFDFDF",
"0O    c #DCDCDC",
"0P    c #3566A4",
"0Q    c #D0DFEF",
"0R    c #D7E4F1",
"0S    c #DEE8F4",
"0T    c #DDE8F3",
"0U    c #D2E0EF",
"0V    c #8AAFD7",
"0W    c #729ECF",
"0X    c #6693C6",
"0Y    c #3667A4",
"0Z    c #D8D8D8",
"0&    c #3666A4",
"1     c #BACFE7",
"10    c #CBDCED",
"11    c #D3E0F0",
"12    c #DAE5F2",
"13    c #DBE7F2",
"14    c #A9C5E2",
"15    c #729FCE",
"16    c #739FCF",
"17    c #6493C5",
"18    c #3868A5",
"19    c #5079AD",
"1a    c #A3C1DF",
"1b    c #C5D7EB",
"1c    c #D1E0EF",
"1d    c #D5E2F0",
"1e    c #D5E3F1",
"1f    c #A9C4E1",
"1g    c #729ED0",
"1h    c #5382BA",
"1i    c #557DAF",
"1j    c #E5E5E5",
"1k    c #C6C6C6",
"1l    c #878787",
"1m    c #7A96B9",
"1n    c #82AAD4",
"1o    c #BDD2E8",
"1p    c #C6D8EB",
"1q    c #BFD3E9",
"1r    c #B4CDE5",
"1s    c #88ACD7",
"1t    c #71A0D0",
"1u    c #72A0CE",
"1v    c #739FCE",
"1w    c #4474AF",
"1x    c #849FC1",
"1y    c #7B7B7B",
"1z    c #A8A8A8",
"1A    c #F6F6F6",
"1B    c #C9D0DA",
"1C    c #3467A5",
"1D    c #6594C6",
"1E    c #71A0CF",
"1F    c #71A0CE",
"1G    c #73A0CE",
"1H    c #70A0CF",
"1I    c #74A0CF",
"1J    c #73A0CF",
"1K    c #6291C5",
"1L    c #3667A5",
"1M    c #D5DCE6",
"1N    c #929292",
"1O    c #6F6F6F",
"1P    c #8BA2C0",
"1Q    c #3B6CA9",
"1R    c #719ECD",
"1S    c #719ED0",
"1T    c #739FD0",
"1U    c #739ED0",
"1V    c #729ECE",
"1W    c #3B6CA8",
"1X    c #99B1CD",
"1Y    c #626262",
"1Z    c #969696",
"1&    c #567DAF",
"2     c #3C6CAA",
"20    c #6290C5",
"21    c #5F8FC3",
"22    c #3C6DA9",
"23    c #5E85B6",
"24    c #F3F4F4",
"25    c #565656",
"26    c #B2B2B2",
"27    c #F8F9F9",
"28    c #92A9C6",
"29    c #3567A5",
"2a    c #4273AE",
"2b    c #507FB7",
"2c    c #608FC3",
"2d    c #5E8EC2",
"2e    c #4D7DB6",
"2f    c #4172AE",
"2g    c #3768A6",
"2h    c #9DB5D1",
"2i    c #F2F3F3",
"2j    c #8C8C8C",
"2k    c #4A4A4A",
"2l    c #484848",
"2m    c #ADADAD",
"2n    c #D9E0EA",
"2o    c #8BA6C7",
"2p    c #5D84B4",
"2q    c #3A69A6",
"2r    c #3B6AA7",
"2s    c #6086B6",
"2t    c #8EA8CA",
"2u    c #DDE4EE",
"2v    c #C5C5C5",
"2w    c #F3F3F3",
"2x    c #F9F9F9",
"2y    c #BABABA",
"2z    c #797979",
"2A    c #D4D4D4",
"2B    c #B0B0B0",
"2C    c #ABABAB",
"2D    c #949494",
"2E    c #A4A4A4",
"2F    c #A0A0A0",
"2G    c #4B4B4B",
"2H    c #B1B1B1",
"2I    c #D1D1D1",
"2J    c #C2C2C2",
"2K    c #919191",
"2L    c #6E6E6E",
"2M    c #B8B8B8",
"2N    c #A1A1A1",
"2O    c #575757",
"2P    c #9A9A9A",
"2Q    c #646464",
"2R    c #000000",
"2S    c #0E0E0E",
"2T    c #474747",
"2U    c #6A6A6A",
"2V    c #B4B4B4",
"2W    c #AAAAAA",
"2X    c #9F9F9F",
"2Y    c #747474",
"2Z    c #424242",
"2&    c #595959",
"3     c #AFAFAF",
"30    c #B3B3B3",
"31    c #A7A7A7",
"32    c #CFCFCF",
"33    c #E7E7E7",
"34    c #3A3A3A",
"35    c #4C4C4C",
"36    c #A9A9A9",
"37    c #434343",
"38    c #D3D3D3",
"39    c #9B9B9B",
"3a    c #151515",
"3b    c #2F2F2F",
"3c    c #454545",
"3d    c #D0D0D0",
"3e    c #E0E0E0",
"3f    c #ACACAC",
"3g    c #242424",
"3h    c #525252",
"3i    c #333333",
"3j    c #0C0C0C",
"3k    c #212121",
"3l    c #464646",
"3m    c #848484",
"3n    c #C8C8C8",
"3o    c #545454",
"3p    c #131313",
"                         0 0                                    ",
"                 0 0 0 0 1 1 0 0 0 0                            ",
"               0 2 3 4 5 6 7 8 9 a b 0                          ",
"           0 0 c d e f g h 4 i j k l m 0 0                      ",
"         0 n 8 o p q r s t t u v w x o c 1 0                    ",
"         0 y j z A B C D E E D C B F G 7 H 0                    ",
"       0 c 7 z u I J K L M N O P E I Q R S T 0                  ",
"     0 U 5 V W I X N Y Z &0 00010203 I040506 b 0                ",
"     007 808 B E090a0b0c0d0e0f0g0h0i E0j0k0l0m 0                ",
"     00n g0o C0p0q0r Y0b0s0t0u0v0h0w0x C0y0z H 0                ",
"     00A h0B D0C0v0u0e0D0a0E0F0G0H0I0J0K0L0z0M 0                ",
"     00N0O0P E L0Q0R0u0S0E0T0q0U0V0W0J0X0Y i0Z 0 0              ",
"     0 V0N0& E1 10110R12130F0R140x15161718 4 9 0                ",
"     0 9 g19 D1a1b101c1d0R1e1f1g1g0W0x1h1i1j1k1l                ",
"     01k0l1m C1n1f1o1p1q1r1s1t161u1v151w1x1j a1y                ",
"     01z1A1B1C1D1E1F1u1u1u1G1H1I1J0I1K1L1M0N1N1O                ",
"     0 106 d1P1Q1R0J0J1S1T1U1t161u1V1W1X y071O1Y                ",
"       01Z j R1&2 201J1V1v1t0J1J212223240Z1y1Y25                ",
"         026 j2728292a2b2c2d2e2f2g2h2i0N 4 c2j2k2l              ",
"         0 02m V d2n2o2p2q2r2s2t2u y0Z V2v U0m U2l2l            ",
"           0 0 n 31j0l2w2x 5 S l h2y2z2A2B2C2D2E2F2G2l          ",
"               0 12F2H c2I2I2J2H2K2L1Y1l2M2C2B1Z2N2E2O2l        ",
"                 0 0 0 0 0 01l1y2L1Y252k1y H2m2m2P m0m2Q2l2l    ",
"                    2R2R2R2R2R2R2R2R2R2S2T2U2V2B2W2X2P0m2Y2l2l  ",
"          2R2R2R2R2R2R2R2R2R2R2R2R2R2R2R2R2Z2&3 30312E260O1O2l  ",
"    2R2R2R2R2R2R2R2R2F320N y f330N0n2N2R2R2R343536 a2H0O p2J2T2l",
"  2R2R2R2R2R2R2R2R372M0O f2w 7 5 f38393a2R2R2R3b3c2F3d3e l3f2T2R",
"  2R2R2R2R2R2R2R2R2R2R2R3g2k3h3i3j2R2R2R2R2R2R2R3k3l3m3n263o3l2R",
"    2R2R2R2R2R2R2R2R2R2R2R2R2R2R2R2R2R2R2R2R2R2R2R3p372T2T3l2l  ",
"          2R2R2R2R2R2R2R2R2R2R2R2R2R2R2R2R2R2R2R2R2R2R2R        ",
"                    2R2R2R2R2R2R2R2R2R2R2R2R                    ",
"                                                                "};

