/* XPM */
static char *PackMan2ExtendedFrm_ID_MNU_VERIFYFILES_1003_XPM[]={
/* PackMan2ExtendedFrm_ID_MNU_VERIFYFILES_1003 */
"16 16 114 2",
"      c None",
" 0    c #8A8A8A",
" 1    c #A4A4A4",
" 2    c #DCDCDC",
" 3    c #E6E6E6",
" 4    c #ECECEC",
" 5    c #D2D2D2",
" 6    c #949494",
" 7    c #B4B4B4",
" 8    c #EAEAEA",
" 9    c #879FBC",
" a    c #517DB2",
" b    c #4978B1",
" c    c #527EB2",
" d    c #8FA7C3",
" e    c #EBEBEB",
" f    c #9A9A9A",
" g    c #919191",
" h    c #E4E4E4",
" i    c #6C8DB5",
" j    c #739CC9",
" k    c #BAD0E8",
" l    c #D7E3F1",
" m    c #BCD1E8",
" n    c #6B96C6",
" o    c #7796BC",
" p    c #DDDDDD",
" q    c #8C8C8C",
" r    c #BFC8D2",
" s    c #5081B8",
" t    c #D1E0EF",
" u    c #E8EFF7",
" v    c #E7EEF6",
" w    c #DAE6F2",
" x    c #A7C4E1",
" y    c #5182B9",
" z    c #C9D2DC",
" A    c #BABABA",
" B    c #839CBA",
" C    c #88ABD4",
" D    c #D5E2F1",
" E    c #E1EAF4",
" F    c #E2EBF5",
" G    c #8DB2D8",
" H    c #6996C8",
" I    c #8CA4C1",
" J    c #AFAFAF",
" K    c #BCBCBC",
" L    c #89ACD4",
" M    c #CBDCED",
" N    c #D7E4F1",
" O    c #B0C9E4",
" P    c #729FD0",
" Q    c #6895C8",
" R    c #8AA3C0",
" S    c #AEAEAE",
" T    c #ADADAD",
" U    c #C7D0DA",
" V    c #5785BA",
" W    c #94B6DA",
" X    c #9FBDDE",
" Y    c #8BB1D6",
" Z    c #71A0D0",
" &    c #72A0CE",
"0     c #5381B8",
"00    c #969696",
"01    c #8B8B8B",
"02    c #DFDFDF",
"03    c #7B99BD",
"04    c #5C8BC0",
"05    c #729FCF",
"06    c #739FD0",
"07    c #5B89BC",
"08    c #88A4C5",
"09    c #C3C3C3",
"0a    c #626262",
"0b    c #9B9B9B",
"0c    c #E3E3E3",
"0d    c #9CB2CC",
"0e    c #698CB8",
"0f    c #5C84B5",
"0g    c #6F91BB",
"0h    c #A1B5D0",
"0i    c #E2E2E2",
"0j    c #C4C4C4",
"0k    c #959595",
"0l    c #484848",
"0m    c #D9D9D9",
"0n    c #D5D5D5",
"0o    c #A9A9A9",
"0p    c #B1B1B1",
"0q    c #9D9D9D",
"0r    c #525252",
"0s    c #7B7B7B",
"0t    c #4A4A4A",
"0u    c #A2A2A2",
"0v    c #9C9C9C",
"0w    c #616161",
"0x    c #000000",
"0y    c #2D2D2D",
"0z    c #838383",
"0A    c #BBBBBB",
"0B    c #8E8E8E",
"0C    c #D1D1D1",
"0D    c #C0C0C0",
"0E    c #353535",
"0F    c #111111",
"0G    c #727272",
"0H    c #C6C6C6",
"0I    c #B0B0B0",
"0J    c #454545",
"0K    c #050505",
"0L    c #424242",
"0M    c #464646",
"         0 0 0 0 0              ",
"     0 1 2 3 4 3 5 6 0          ",
"     7 8 9 a b c d e f          ",
"   g h i j k l m n o p q        ",
"   7 r s t u v w x y z 1        ",
"   A B C D E F w G H I J        ",
"   K 9 L M N w O P Q R S        ",
"   T U V W X Y Z &0  U00        ",
"  010203040506 Z0708090a        ",
"    0b0c0d0e0f0g0h0i0j0k0l      ",
"     0 g A0m 30n0o010p0q0b0r    ",
"         0 0 00s0a0t g T0u0v0w0l",
"      0x0x0x0x0x0x0x0y0z S0A0j0l",
"  0x0x0x0x0B0C0c0D0E0x0F0G0H0I0J",
"  0x0x0x0x0x0x0x0x0x0x0x0K0L0M  ",
"              0x0x0x            "};

