/* XPM */
static char *PackMan2ExtendedFrm_btnHelp_XPM[]={
/* PackMan2ExtendedFrm_btnHelp */
"32 32 344 2",
"      c None",
" 0    c #204A87",
" 1    c #4D6E9F",
" 2    c #90A5C3",
" 3    c #C9D3E2",
" 4    c #E1E6EF",
" 5    c #F6F7FA",
" 6    c #4B6D9E",
" 7    c #5373A2",
" 8    c #DDE4ED",
" 9    c #DCE3EC",
" a    c #264F8A",
" b    c #9AADC8",
" c    c #FDFDFE",
" d    c #E5EAF1",
" e    c #A0B2CC",
" f    c #5F7DA9",
" g    c #3E6297",
" h    c #29518C",
" i    c #2A528C",
" j    c #3F6397",
" k    c #5D7BA7",
" l    c #A2B3CD",
" m    c #E8ECF2",
" n    c #9CAECA",
" o    c #4F70A0",
" p    c #DCE2EC",
" q    c #FCFCFD",
" r    c #93A7C5",
" s    c #254E89",
" t    c #214B88",
" u    c #234D89",
" v    c #254E8A",
" w    c #26508B",
" x    c #2D558E",
" y    c #9AADC9",
" z    c #5071A1",
" A    c #FBFCFD",
" B    c #DBE1EB",
" C    c #4E6F9F",
" D    c #A7B8CF",
" E    c #D5DDE8",
" F    c #EDF1F5",
" G    c #F6F8FA",
" H    c #DAE1EB",
" I    c #BBC9DB",
" J    c #6684AE",
" K    c #2C558F",
" L    c #2D5690",
" M    c #5B7BA8",
" N    c #DEE4ED",
" O    c #FAFBFC",
" P    c #5272A1",
" Q    c #ACBCD2",
" R    c #264E8A",
" S    c #B6C4D7",
" T    c #C4CFE0",
" U    c #345C95",
" V    c #335C94",
" W    c #3A6198",
" X    c #B4C3D7",
" Y    c #DFE5EE",
" Z    c #28518B",
" &    c #27508B",
"0     c #BAC7DA",
"00    c #99AECA",
"01    c #386098",
"02    c #396198",
"03    c #3F659C",
"04    c #E0E6EF",
"05    c #A3B5CF",
"06    c #234C89",
"07    c #BBC8DB",
"08    c #F4F6F9",
"09    c #C6D1E1",
"0a    c #9FB2CC",
"0b    c #C7D2E2",
"0c    c #E9EDF3",
"0d    c #3D649B",
"0e    c #3E659C",
"0f    c #3E669C",
"0g    c #6887B1",
"0h    c #FCFDFD",
"0i    c #5B7AA8",
"0j    c #96A9C6",
"0k    c #B7C4D8",
"0l    c #A1B3CD",
"0m    c #3C6399",
"0n    c #325B94",
"0o    c #355D95",
"0p    c #375F97",
"0q    c #96ABC9",
"0r    c #4E73A4",
"0s    c #426A9F",
"0t    c #436A9F",
"0u    c #446BA0",
"0v    c #A7B9D2",
"0w    c #E1E7EF",
"0x    c #E7EBF2",
"0y    c #27508C",
"0z    c #2A538E",
"0A    c #355C94",
"0B    c #305992",
"0C    c #365E96",
"0D    c #3B639A",
"0E    c #6080AD",
"0F    c #597CAB",
"0G    c #476EA2",
"0H    c #486FA3",
"0I    c #4C72A5",
"0J    c #ECF0F5",
"0K    c #5173A2",
"0L    c #9EB0CB",
"0M    c #315993",
"0N    c #3A6299",
"0O    c #3D659B",
"0P    c #40679D",
"0Q    c #94AAC8",
"0R    c #EEF2F6",
"0S    c #4B72A5",
"0T    c #4C72A6",
"0U    c #4D73A6",
"0V    c #4D74A7",
"0W    c #B3C4D9",
"0X    c #9BAFCB",
"0Y    c #CBD5E3",
"0Z    c #5C7AA7",
"0&    c #224C88",
"1     c #264F8B",
"10    c #315A93",
"11    c #345D95",
"12    c #41689E",
"13    c #5F81AE",
"14    c #F5F7FA",
"15    c #BCCBDD",
"16    c #5076A8",
"17    c #5177A9",
"18    c #5278AA",
"19    c #819DC1",
"1a    c #D2DBE8",
"1b    c #254F8A",
"1c    c #29528D",
"1d    c #3F669C",
"1e    c #42699F",
"1f    c #5A7CAB",
"1g    c #E8EDF3",
"1h    c #EAEFF4",
"1i    c #5D81B0",
"1j    c #547AAC",
"1k    c #567BAC",
"1l    c #567CAD",
"1m    c #577CAD",
"1n    c #577DAD",
"1o    c #6E8EB8",
"1p    c #E7ECF3",
"1q    c #FEFEFE",
"1r    c #244D89",
"1s    c #28518C",
"1t    c #305892",
"1u    c #496FA3",
"1v    c #D7DFEB",
"1w    c #7C99BE",
"1x    c #587DAE",
"1y    c #597EAF",
"1z    c #5A80B0",
"1A    c #5B80B0",
"1B    c #5C81B1",
"1C    c #6386B4",
"1D    c #F8F9FB",
"1E    c #28508B",
"1F    c #2E5791",
"1G    c #335B94",
"1H    c #365F97",
"1I    c #456CA1",
"1J    c #AFC0D7",
"1K    c #89A3C6",
"1L    c #5A7FB0",
"1M    c #5E83B2",
"1N    c #5F84B3",
"1O    c #6085B4",
"1P    c #6185B4",
"1Q    c #678AB7",
"1R    c #F8FAFB",
"1S    c #416599",
"1T    c #28528D",
"1U    c #355D96",
"1V    c #396199",
"1W    c #4A70A3",
"1X    c #ABBED6",
"1Y    c #5E83B3",
"1Z    c #6287B5",
"1&    c #6488B6",
"2     c #6589B7",
"20    c #658AB8",
"21    c #668AB8",
"22    c #7A9AC1",
"23    c #E9EDF4",
"24    c #CCD5E3",
"25    c #5F7EA9",
"26    c #2B548E",
"27    c #2F5891",
"28    c #386097",
"29    c #3C639A",
"2a    c #6888B4",
"2b    c #7192BB",
"2c    c #6387B6",
"2d    c #678BB9",
"2e    c #688DBA",
"2f    c #6A8EBA",
"2g    c #6A8EBB",
"2h    c #6B8EBB",
"2i    c #94AECE",
"2j    c #D7E0EB",
"2k    c #97ABC7",
"2l    c #476DA2",
"2m    c #4B71A5",
"2n    c #5D80AF",
"2o    c #93ABCA",
"2p    c #95ADCB",
"2q    c #98AFCD",
"2r    c #9AB1CE",
"2s    c #6488B5",
"2t    c #698DBA",
"2u    c #6B8FBC",
"2v    c #6D91BD",
"2w    c #6E92BE",
"2x    c #6F93BE",
"2y    c #6F93BF",
"2z    c #C2D1E3",
"2A    c #A5B8D1",
"2B    c #5071A0",
"2C    c #335A93",
"2D    c #3C649A",
"2E    c #40689E",
"2F    c #4970A4",
"2G    c #5177AA",
"2H    c #557BAC",
"2I    c #597FAF",
"2J    c #5D82B2",
"2K    c #6186B4",
"2L    c #6489B7",
"2M    c #688CB9",
"2N    c #6B8FBB",
"2O    c #7093BF",
"2P    c #7295C0",
"2Q    c #7396C1",
"2R    c #7497C2",
"2S    c #7799C3",
"2T    c #EFF3F8",
"2U    c #5A7AA8",
"2V    c #99ADC9",
"2W    c #6D8DB7",
"2X    c #CBD7E5",
"2Y    c #CCD7E6",
"2Z    c #CDD9E7",
"2&    c #CEDAE8",
"3     c #6E90BC",
"30    c #6F92BE",
"31    c #7195C0",
"32    c #7699C3",
"33    c #789BC4",
"34    c #799CC5",
"35    c #BECFE3",
"36    c #E8EEF4",
"37    c #5575A4",
"38    c #5B7DAA",
"39    c #7B98BF",
"3a    c #7496BF",
"3b    c #7296C1",
"3c    c #7598C3",
"3d    c #789BC5",
"3e    c #7B9DC6",
"3f    c #7C9FC8",
"3g    c #98B3D3",
"3h    c #FDFEFE",
"3i    c #6B8AB3",
"3j    c #9EB1CC",
"3k    c #3F679C",
"3l    c #466DA1",
"3m    c #4A71A5",
"3n    c #4F75A8",
"3o    c #5479AB",
"3p    c #7C99BF",
"3q    c #7797C1",
"3r    c #7599C3",
"3s    c #7FA1C9",
"3t    c #84A5CC",
"3u    c #EAF0F6",
"3v    c #BCCCE0",
"3w    c #DEE5EE",
"3x    c #AEBED5",
"3y    c #456BA0",
"3z    c #5076A9",
"3A    c #7E9BC0",
"3B    c #789AC3",
"3C    c #7498C2",
"3D    c #80A2CA",
"3E    c #87A8CD",
"3F    c #D2DEEC",
"3G    c #EBF0F6",
"3H    c #325A93",
"3I    c #5374A2",
"3J    c #DCE3ED",
"3K    c #6A8AB4",
"3L    c #7F9BC1",
"3M    c #7A9BC3",
"3N    c #779AC4",
"3O    c #7B9EC7",
"3P    c #7FA1CA",
"3Q    c #9EB8D7",
"3R    c #EDF2F7",
"3S    c #6584AF",
"3T    c #5375A3",
"3U    c #A8BAD3",
"3V    c #557AAB",
"3W    c #577DAE",
"3X    c #80A1C9",
"3Y    c #C3D4E6",
"3Z    c #EBF1F7",
"3&    c #6584B0",
"4     c #A7B8D1",
"40    c #EAEFF5",
"41    c #B4C5DB",
"42    c #87A3C5",
"43    c #7696BE",
"44    c #6A8DB9",
"45    c #6F92BC",
"46    c #83A1C7",
"47    c #9AB3D2",
"48    c #C5D4E6",
"49    c #F1F5F9",
"4a    c #C0D0E3",
"4b    c #345B93",
"4c    c #5D7DA9",
"4d    c #E3E9F1",
"4e    c #6E8CB5",
"4f    c #5777A5",
"4g    c #D6DEEA",
"4h    c #E8EDF4",
"4i    c #F8FAFC",
"4j    c #F9FAFC",
"4k    c #DAE2ED",
"4l    c #AABDD5",
"4m    c #5C7DAA",
"                     0 0 0 0 0 0 0 0 0 0 0 0                    ",
"                 0 0 0 0 0 0 0 0 0 0 0 0 0 0 0 0                ",
"             0 0 0 0 0 1 2 3 4 5 5 4 3 2 6 0 0 0 0 0            ",
"           0 0 0 0 7 8                     9 7 0 0 0 0          ",
"         0 0 0 a b c   d e f g h i j k l m   c n a 0 0 0        ",
"       0 0 0 o p   q r s 0 0 0 0 t u v w x y q   8 z 0 0 0      ",
"     0 0 0 o A   B C 0 s f D E F G H I J K L M N   O P 0 0 0    ",
"     0 0 a p   Q R 0 0 S                 T U V W X   Y Z 0 0    ",
"   0 0 0 b   8 & 0 0 00                   0001020304  05 0 0 0  ",
"   0 0 7 c q z 0 0 00607  08090a0b A      0c0d0e0f0g0h c0i 0 0  ",
" 0 0 0 9  0j 0 0 0 u w0k0l0m0n0o0p0q        0r0s0t0u0v  0w 0 0 0",
" 0 0 C  0x s 0 0 u0y0z0A0B V0C020D0E        0F0G0H0H0I0J  0K 0 0",
" 0 00j  0L 0 0 u &0z L0M U0p0N0O0P0Q      0R0S0T0U0V0V0W  0X 0 0",
" 0 00Y  0Z 00&1 0z L1011010D0f121314      15161718181819  1a 0 0",
" 0 0 4   g t1b1c L0B11010D1d1e1f1g      1h1i1j1k1l1m1n1o  1p 0 0",
" 0 0 51q R1r1s K1t U0p0D1d1e1u1v       O1w1x1y1z1A1B1B1C  1D 0 0",
" 0 0 51q1E w0z1F1G1H0N0f1e1I1J       c1K1L1B1M1N1O1P1P1Q  1R 0 0",
" 0 0 4  1S1T L101U1V0O121I1W14      1X1B1Y1O1Z1&2 202122  23 0 0",
" 0 024  252627 V28290P0u0H2a        2b1O2c2 2d2e2f2g2h2i  2j 0 0",
" 0 02k  0a L100C0N0f0s2l2m2n2o2p2q2r2s1&2d2t2u2v2w2x2y2z  2A 0 0",
" 0 02B   d2C V282D2E1I2F0V2G2H2I2J2K2L2M2N2v2O2P2Q2R2S2T  2U 0 0",
" 0 0 0 N  2V0o1V0e0s0G0S162W2X2Y2Z2&3 2u30312R32333435  36 0 0 0",
"   0 037 c A380D0P0u1u0V1839        3a303b3c3d3e3f3g c3h3i 0 0  ",
"   0 0 03j   H3k123l3m3n3o3p        3q2P3r343f3s3t3u  3v 0 0 0  ",
"     0 01E3w  3x3y0G0I3z2H3A        3B3C3d3f3D3E3F  3G3H 0 0    ",
"     0 0 03I c  3J3K0U2G1l3L        3M3N3O3P3Q3R   c3S 0 0 0    ",
"       0 0 03T04   q3U3V3W1B1P202g302R3d3X3Y c  3Z3& 0 0 0      ",
"         0 0 0 i4  c  40414243444546474849  1q4a4b 0 0 0        ",
"           0 0 0 04c4d        1q1q        404e 0 0 0 0          ",
"             0 0 0 0 04f054g4h4i4j404k4l4m 0 0 0 0 0            ",
"                 0 0 0 0 0 0 0 0 0 0 0 0 0 0 0 0                ",
"                     0 0 0 0 0 0 0 0 0 0 0 0                    "};

