/* XPM */
static char *Package_XPM[]={
/* Package */
"32 32 212 2",
"      c None",
" 0    c #A0670C",
" 1    c #A46D14",
" 2    c #A36C14",
" 3    c #A0680C",
" 4    c #A1680C",
" 5    c #A1670C",
" 6    c #A3690D",
" 7    c #A56E17",
" 8    c #A57018",
" 9    c #D4AB69",
" a    c #E5BF86",
" b    c #E4BF86",
" c    c #E5C18A",
" d    c #E6C691",
" e    c #EACA98",
" f    c #ECCF9F",
" g    c #EDD2A8",
" h    c #EED6AF",
" i    c #F1DAB6",
" j    c #F3DEBF",
" k    c #F4E2C6",
" l    c #F5E4C9",
" m    c #F2E1C7",
" n    c #C6A065",
" o    c #A56B0E",
" p    c #D3B27D",
" q    c #E7C99B",
" r    c #D7AD6C",
" s    c #A36E1A",
" t    c #A56F1B",
" u    c #A46E1B",
" v    c #A9721A",
" w    c #AD751B",
" x    c #B1771C",
" y    c #B67A1C",
" z    c #B97D1C",
" A    c #BD801D",
" B    c #C2811D",
" C    c #C6841D",
" D    c #CA871E",
" E    c #CF8A1E",
" F    c #D5942D",
" G    c #E9D5B4",
" H    c #CE9B4D",
" I    c #C9861B",
" J    c #D4B480",
" K    c #F3DFC1",
" L    c #E1BC82",
" M    c #A97420",
" N    c #A36D18",
" O    c #A87018",
" P    c #AC7319",
" Q    c #B0761A",
" R    c #B5791A",
" S    c #B97C1B",
" T    c #BD7F1C",
" U    c #C2811C",
" V    c #D38D1F",
" W    c #D89E43",
" X    c #EAD7B8",
" Y    c #D09537",
" Z    c #C7851D",
" &    c #A2690D",
"0     c #D0AE78",
"00    c #E9D3AF",
"01    c #DEB87D",
"02    c #EAC995",
"03    c #E8C999",
"04    c #E8C898",
"05    c #E8CA9A",
"06    c #E9CB9F",
"07    c #EACEA4",
"08    c #EAD1A8",
"09    c #ECD3AE",
"0a    c #ECD5B2",
"0b    c #EDD7B7",
"0c    c #EEDABB",
"0d    c #EFDCC1",
"0e    c #EFDCC0",
"0f    c #F3E5CE",
"0g    c #E0C79F",
"0h    c #C07E19",
"0i    c #BF7F1A",
"0j    c #A1680D",
"0k    c #A46D15",
"0l    c #B7893F",
"0m    c #B7883F",
"0n    c #A36C13",
"0o    c #DCBD8B",
"0p    c #EACFA5",
"0q    c #E3C28F",
"0r    c #E3C38F",
"0s    c #E4C38F",
"0t    c #E5C491",
"0u    c #E5C693",
"0v    c #E5C696",
"0w    c #E6C798",
"0x    c #E6C899",
"0y    c #E7CA9C",
"0z    c #E7C99E",
"0A    c #E7CBA1",
"0B    c #E8CCA3",
"0C    c #E8CCA1",
"0D    c #E8CBA1",
"0E    c #ECD4B0",
"0F    c #EBD6B5",
"0G    c #A46C12",
"0H    c #AB7012",
"0I    c #A46D16",
"0J    c #A0680E",
"0K    c #C19855",
"0L    c #F3E0C3",
"0M    c #EFCF9C",
"0N    c #F0CE99",
"0O    c #F0CE98",
"0P    c #EFCD96",
"0Q    c #EFCC95",
"0R    c #EFCC94",
"0S    c #EFCB93",
"0T    c #EECA91",
"0U    c #EECA90",
"0V    c #EEC98F",
"0W    c #EEC98E",
"0X    c #EEC88D",
"0Y    c #EDC78B",
"0Z    c #EDC78A",
"0&    c #EDC689",
"1     c #EDC688",
"10    c #EDC587",
"11    c #ECC485",
"12    c #F1D9B3",
"13    c #E5C89B",
"14    c #A26A10",
"15    c #A1680E",
"16    c #9C6A08",
"17    c #A97521",
"18    c #F2DFC1",
"19    c #EFD0A0",
"1a    c #EFCB92",
"1b    c #EEC88C",
"1c    c #ECC484",
"1d    c #ECC383",
"1e    c #ECC382",
"1f    c #ECC281",
"1g    c #EBC17F",
"1h    c #EBC17E",
"1i    c #EBC07D",
"1j    c #EBC180",
"1k    c #F3DDBE",
"1l    c #D0A96B",
"1m    c #A46C11",
"1n    c #A56D14",
"1o    c #E6CCA3",
"1p    c #F4E3CA",
"1q    c #F3E1C6",
"1r    c #B68538",
"1s    c #A16809",
"1t    c #A36B13",
"1u    c #A36B12",
"1v    c #A56E16",
"1w    c #A46C13",
"1x    c #A56E15",
"1y    c #A36B11",
"1z    c #A2690E",
"1A    c #A46B12",
"1B    c #A6660D",
"1C    c #9F6A0B",
"1D    c #9F670B",
"1E    c #D9B783",
"1F    c #BE8327",
"1G    c #D5B077",
"1H    c #AA6A15",
"1I    c #E2C395",
"1J    c #C98F37",
"1K    c #DFBD89",
"1L    c #E5C799",
"1M    c #CF9742",
"1N    c #E2C18E",
"1O    c #E8CB9D",
"1P    c #D6A04D",
"1Q    c #E6C593",
"1R    c #EBCEA2",
"1S    c #DCA858",
"1T    c #E9C998",
"1U    c #EFD2A7",
"1V    c #E3B063",
"1W    c #EDCE9E",
"1X    c #F2D7AC",
"1Y    c #E9B96E",
"1Z    c #F1D3A4",
"1&    c #000000",
"2     c #F2D6AB",
"20    c #EBBE77",
"21    c #EABA6F",
"22    c #EBBD76",
"23    c #F1D2A2",
"24    c #9D6710",
"25    c #D4A963",
"26    c #F2D6AA",
"27    c #F2D6A9",
"28    c #F2D5A9",
"29    c #F2D5A8",
"2a    c #F2D5A7",
"2b    c #F2D4A6",
"2c    c #F1D4A5",
"2d    c #F1D3A5",
"2e    c #D2A65F",
"2f    c #9C6610",
"2g    c #563706",
"2h    c #9B6610",
"2i    c #4D3105",
"                                                                ",
"                                                                ",
"                                                                ",
"                                                                ",
"                                                                ",
"                                                                ",
"               0 1 2 0 0 3 0 0 4 4 0 5 5 5 5 6 6 0              ",
"           0 7 8 9 a a b c d e f g h i j k l m n o 6 0          ",
"         0 2 p q r s t u v w x y z A B C D E F G H I 6 0        ",
"       0 2 J K L M N N N O P Q R S T U C D E V W X Y Z & 0      ",
"     0 20 0001020304040405060708090a0b0c0d0d0d0e0f0g0h0i0j 0    ",
"   00k0l0m0n0o0p0q0r0s0s0t0u0v0w0x0y0z0A0B0C0C0D0E0F0G 60H 0 0  ",
" 00k 00I0J0K0L0M0N0O0P0Q0R0S0T0U0V0W0X0Y0Z0&1 10111213140j 0 0 0",
"15 2 0161718191a0U0V0W0X1b0Z0&1 10111c1d1e1f1g1h1i1j1k1l1m 0 0 0",
"      1n1o1p1p1p1p1p1p1p1p1p1p1p1p1p1p1p1p1p1p1p1p1p1p1q1r 3    ",
"    1s 01t1u1v1w1w1w1w1w1w1w0G0G0G0G0G0G0G0G0G0G0G1x1y0G1z1A    ",
"      1B1C1D1E1F1F1F1F1F1F1F1F1F1F1F1F1F1F1F1F1F1F1G1D1C1C1H    ",
"           01I1J1J1J1J1J1J1J1J1J1J1J1J1J1J1J1J1J1J1K 0          ",
"           01L1M1M1M1M1M1M1M1M1M1M1M1M1M1M1M1M1M1M1N 0          ",
"           01O1P1P1P1P1P1P1P1P1P1P1P1P1P1P1P1P1P1P1Q 0          ",
"           01R1S1S1S1S1S1S1S1S1S1S1S1S1S1S1S1S1S1S1T 0          ",
"           01U1V1V1V1V1V1V1V1V1V1V1V1V1V1V1V1V1V1V1W 0          ",
"           01X1Y1Y1Y1Y1Y1Y1Y1Y1Y1Y1Y1Y1Y1Y1Y1Y1Y1Y1Z 01&        ",
"      1&1& 02 20212121212121212121212121212121212223 01&1&1&    ",
"      1&1&242526262627282929292a2b2b2c2c2d1Z1Z1Z232e2f1&1&1&    ",
"    1&1&1&2g2h 0 0 0 0 0 0 0 0 0 0 0 0 0 0 0 0 0 02h2i1&1&1&    ",
"      1&1&1&1&1&1&1&1&1&1&1&1&1&1&1&1&1&1&1&1&1&1&1&1&1&1&1&    ",
"        1&1&1&1&1&1&1&1&1&1&1&1&1&1&1&1&1&1&1&1&1&1&1&1&1&      ",
"                                                                ",
"                                                                ",
"                                                                ",
"                                                                "};

