/* XPM */
static char *Self_PackMan2ExtendedFrm_XPM[]={
/* Self_PackMan2ExtendedFrm */
"32 32 25 1",
"      c None",
"0     c #000000",
"1     c #F2F2F2",
"2     c #1A1A1A",
"3     c #FFFFD4",
"4     c #262626",
"5     c #A0A0A4",
"6     c #B6B6B6",
"7     c #734A00",
"8     c #E6E6E6",
"9     c #FFFFB1",
"a     c #986633",
"b     c #CECECE",
"c     c #FFFF00",
"d     c #FFFF6B",
"e     c #626262",
"f     c #FFAB8E",
"g     c #FFAA00",
"h     c #9E9E9E",
"i     c #B90000",
"j     c #DC0000",
"k     c #960000",
"l     c #FF6B6B",
"m     c #800000",
"n     c #CB9866",
"          0100     220          ",
"          0100     220          ",
"         030  00  45 60         ",
"         030  00  45 60         ",
"        033077  000 180         ",
"        033077  000 180         ",
"       0933307aa  05860         ",
"       0933307aa  05860         ",
"      0993b3070aa0c00000        ",
"      0993b3070aa0c00000        ",
"     0cd9eb330f000ggcccc0       ",
"     0cd9eb330f000ggcccc0       ",
"    0ccdehbb0ffff00ggggg00      ",
"    0ccdehbb0ffff00ggggg00      ",
"     0cdeee0ffffffi0gggg0 00    ",
"     0cdeee0ffffffi0gggg0 00    ",
"    00cd9e0  ffffjk0gggg0a  0   ",
"    00cd9e0  ffffjk0gggg0a  0   ",
"   0 70d9e0ll  fiki0gggg0a a0   ",
"   0 70d9e0ll  fiki0gggg0a a0   ",
"  0 770d930lllljmjk0ggg0a aa0   ",
"  0 770d930lllljmjk0ggg0a aa0   ",
"  0n  70930llllikii0ggg0 aaa0   ",
"  0n  70930llllikii0ggg0 aaa0   ",
"  0nnn  930lllljkii0ggg naaa0   ",
"  0nnn  930lllljkii0ggg naaa0   ",
"  0nnnnn  0illlkii0ggg 7naaa0   ",
"  0nnnnn  0illlkii0ggg 7naaa0   ",
"  0nnnnnnn  iklii000g a7naaa0   ",
"  0nnnnnnn  iklii000g a7naaa0   ",
"  0nnnnnnnnn  ik0eee aa7naaa0   ",
"  0nnnnnnnnn  ik0eee aa7naaa0   "};

