/* XPM */
static char *WxMenuBar1_ID_MNU_EXIT_1010_XPM[]={
/* WxMenuBar1_ID_MNU_EXIT_1010 */
"16 16 165 2",
"      c None",
" 0    c #030303",
" 1    c #040404",
" 2    c #000000",
" 3    c #7C7C7C",
" 4    c #8C8C8C",
" 5    c #7D7D7D",
" 6    c #727272",
" 7    c #676767",
" 8    c #5E5E5E",
" 9    c #585858",
" a    c #414141",
" b    c #181818",
" c    c #151515",
" d    c #808080",
" e    c #959595",
" f    c #868686",
" g    c #7A7A7A",
" h    c #6F6F6F",
" i    c #686868",
" j    c #626262",
" k    c #424242",
" l    c #1B1B1B",
" m    c #1C1C1C",
" n    c #1D1D1D",
" o    c #050505",
" p    c #A70000",
" q    c #818181",
" r    c #9F9F9F",
" s    c #909090",
" t    c #858585",
" u    c #717171",
" v    c #6B6B6B",
" w    c #434343",
" x    c #1F1F1F",
" y    c #202020",
" z    c #212121",
" A    c #060606",
" B    c #BA3434",
" C    c #964848",
" D    c #A4A4A4",
" E    c #9A9A9A",
" F    c #747474",
" G    c #444444",
" H    c #232323",
" I    c #242424",
" J    c #252525",
" K    c #070707",
" L    c #AB0000",
" M    c #D77272",
" N    c #D87E7E",
" O    c #AA5E5E",
" P    c #9C9C9C",
" Q    c #949494",
" R    c #8B8B8B",
" S    c #828282",
" T    c #464646",
" U    c #262626",
" V    c #282828",
" W    c #292929",
" X    c #080808",
" Y    c #E68484",
" Z    c #E37979",
" &    c #E27070",
"0     c #DF6060",
"00    c #D46B6B",
"01    c #A65A5A",
"02    c #969696",
"03    c #8D8D8D",
"04    c #989898",
"05    c #565656",
"06    c #2A2A2A",
"07    c #2B2B2B",
"08    c #2C2C2C",
"09    c #DD5757",
"0a    c #D52E2E",
"0b    c #D63333",
"0c    c #D84040",
"0d    c #D84141",
"0e    c #CA4F4F",
"0f    c #9E6767",
"0g    c #919191",
"0h    c #4C4C4C",
"0i    c #2D2D2D",
"0j    c #2F2F2F",
"0k    c #303030",
"0l    c #090909",
"0m    c #D32727",
"0n    c #CC0000",
"0o    c #CD1717",
"0p    c #B12F2F",
"0q    c #9B9090",
"0r    c #929292",
"0s    c #505050",
"0t    c #313131",
"0u    c #333333",
"0v    c #343434",
"0w    c #0A0A0A",
"0x    c #AA0000",
"0y    c #BD2222",
"0z    c #BB2020",
"0A    c #C92222",
"0B    c #CD1414",
"0C    c #AC2727",
"0D    c #978C8C",
"0E    c #848484",
"0F    c #535353",
"0G    c #363636",
"0H    c #383838",
"0I    c #0B0B0B",
"0J    c #B21212",
"0K    c #A01717",
"0L    c #897D7D",
"0M    c #979797",
"0N    c #8F8F8F",
"0O    c #373737",
"0P    c #3A3A3A",
"0Q    c #3C3C3C",
"0R    c #A20101",
"0S    c #6F6361",
"0T    c #999999",
"0U    c #A2A2A2",
"0V    c #A3A3A3",
"0W    c #8A8A89",
"0X    c #5C5D57",
"0Y    c #3D3E34",
"0Z    c #3F4035",
"0&    c #424338",
"1     c #44453A",
"10    c #0C0C0C",
"11    c #86877E",
"12    c #ACACAC",
"13    c #AAAAAA",
"14    c #A3A3A0",
"15    c #767961",
"16    c #4D5225",
"17    c #4C5123",
"18    c #4F5426",
"19    c #515628",
"1a    c #54592B",
"1b    c #555A2C",
"1c    c #0D0D0D",
"1d    c #8C8D7C",
"1e    c #B0B1AD",
"1f    c #8E926C",
"1g    c #61691D",
"1h    c #5D6514",
"1i    c #5E6615",
"1j    c #606817",
"1k    c #616918",
"1l    c #636B1A",
"1m    c #646C1B",
"1n    c #656D1C",
"1o    c #0E0E0E",
"1p    c #55583D",
"1q    c #4D5219",
"1r    c #43490B",
"1s    c #444A0D",
"1t    c #454B0E",
"1u    c #464C0F",
"1v    c #474D10",
"1w    c #484E10",
"1x    c #494F11",
"1y    c #4A5012",
"1z    c #474E0F",
"         0 1 1 1 1 1 1 1 1 1 1 2",
"         3 4 5 6 7 8 9 a b b c 1",
"         d e f g h i j k l m n o",
"       p q r s t g u v w x y z A",
"       B C D E s t 3 F G H I J K",
" L L L M N O P Q R S S T U V W X",
" L Y Z &0 00010203 t0405060708 X",
" L090a0b0c0d0e0f s s0g0h0i0j0k0l",
" L0m0n0n0n0o0p0q0r 4 q0s0t0u0v0w",
"0x0y0z0A0B0C0D P e 40E0F0v0G0H0I",
"   2 20J0K0L0r E0M0N f050O0P0Q0I",
"   2 20R0S0T0U0V E0W0X0Y0Z0&1 10",
"        1112131415161718191a1b1c",
"        1d1e1f1g1h1i1j1k1l1m1n1o",
"        1p1q1r1s1t1u1v1w1x1y1z0w",
"                                "};

