/* XPM */
static char *WxMenuBar1_ID_MNU_HELP_1030_XPM[]={
/* WxMenuBar1_ID_MNU_HELP_1030 */
"16 16 152 2",
"      c None",
" 0    c #204A87",
" 1    c #2C548D",
" 2    c #8CA1C1",
" 3    c #BDC9DB",
" 4    c #EBEFF4",
" 5    c #8CA2C1",
" 6    c #5B7AA7",
" 7    c #E3E8F0",
" 8    c #A9B9D0",
" 9    c #6582AC",
" a    c #3B6096",
" b    c #AABAD1",
" c    c #E4E9F0",
" d    c #5C7BA7",
" e    c #617EAA",
" f    c #E7EBF2",
" g    c #5978A6",
" h    c #47699C",
" i    c #C2CEDE",
" j    c #F0F3F7",
" k    c #E6EAF1",
" l    c #A7B8D0",
" m    c #4D6FA0",
" n    c #6482AD",
" o    c #E8EDF3",
" p    c #5D7CA8",
" q    c #2D558E",
" r    c #E5EAF1",
" s    c #5878A5",
" t    c #6C88B0",
" u    c #FDFDFE",
" v    c #D6DEE9",
" w    c #EFF2F6",
" x    c #BDCADC",
" y    c #386098",
" z    c #6B89B3",
" A    c #E6EBF2",
" B    c #2D558D",
" C    c #90A5C3",
" D    c #4B6E9F",
" E    c #325B94",
" F    c #597AA8",
" G    c #FBFCFD",
" H    c #466DA1",
" I    c #436A9F",
" J    c #B7C6DA",
" K    c #94A9C6",
" L    c #C0CCDD",
" M    c #27508B",
" N    c #2D5690",
" O    c #345C95",
" P    c #3A6299",
" Q    c #89A1C2",
" R    c #E8ECF3",
" S    c #4B72A5",
" T    c #4D73A6",
" U    c #86A1C3",
" V    c #C6D2E1",
" W    c #234C89",
" X    c #EDF0F5",
" Y    c #365C93",
" Z    c #254F8A",
" &    c #345D95",
"0     c #3B639A",
"00    c #6D8BB5",
"01    c #F9FBFC",
"02    c #FEFEFE",
"03    c #829DC1",
"04    c #547AAC",
"05    c #567CAD",
"06    c #6C8DB7",
"07    c #EFF3F7",
"08    c #214B88",
"09    c #385E94",
"0a    c #2A538E",
"0b    c #335B94",
"0c    c #42699F",
"0d    c #A0B5D0",
"0e    c #5A7FB0",
"0f    c #5E83B2",
"0g    c #6085B4",
"0h    c #7594BD",
"0i    c #F0F3F8",
"0j    c #224B88",
"0k    c #6A86AF",
"0l    c #2F5891",
"0m    c #386097",
"0n    c #40679D",
"0o    c #5176A7",
"0p    c #C8D4E4",
"0q    c #CAD6E5",
"0r    c #6286B4",
"0s    c #6387B6",
"0t    c #678BB9",
"0u    c #6A8EBA",
"0v    c #9BB2D1",
"0w    c #CCD7E6",
"0x    c #244E8A",
"0y    c #ADBCD3",
"0z    c #335C94",
"0A    c #3C649A",
"0B    c #456CA1",
"0C    c #5278A9",
"0D    c #8FA8C8",
"0E    c #94ADCC",
"0F    c #6589B7",
"0G    c #6B8FBB",
"0H    c #7093BF",
"0I    c #7396C1",
"0J    c #C9D7E7",
"0K    c #A0B4CF",
"0L    c #6987B1",
"0M    c #496FA3",
"0N    c #6284B2",
"0O    c #6F92BD",
"0P    c #7296C1",
"0Q    c #789BC5",
"0R    c #9DB7D6",
"0S    c #EDF1F7",
"0T    c #2F578F",
"0U    c #6381AB",
"0V    c #E9EEF3",
"0W    c #728FB7",
"0X    c #4C72A5",
"0Y    c #6587B3",
"0Z    c #7497C1",
"0&    c #A0B9D7",
"1     c #F1F5F9",
"10    c #6B88B2",
"11    c #224C88",
"12    c #6482AC",
"13    c #E9EDF3",
"14    c #BAC9DD",
"15    c #8BA5C7",
"16    c #7191BB",
"17    c #7999C1",
"18    c #9FB7D5",
"19    c #CDDAE9",
"1a    c #EFF3F8",
"1b    c #718DB5",
"1c    c #264F8B",
"1d    c #2E558F",
"1e    c #9BAFCB",
"1f    c #CBD6E5",
"1g    c #F1F4F8",
"1h    c #F2F5F9",
"1i    c #D1DBE8",
"1j    c #A6B9D3",
"1k    c #315891",
"1l    c #234D89",
"1m    c #254F8B",
"         0 0 0 0 0 0 0 0        ",
"     0 0 1 2 3 4 4 3 5 1 0 0    ",
"   0 0 6 7 8 9 a a 9 b c d 0 0  ",
"   0 e f g h i j k l m n o p 0  ",
" 0 q r s 0 t u v w   x y z A B 0",
" 0 C 8 0 0 D m E F   G H I J K 0",
" 0 L 9 0 M N O P Q   R S T U V W",
" 0 X Y Z N &0 000102030405060708",
" 0 X090a0b P0c o  0d0e0f0g0h0i0j",
" 0 L0k0l0m0n0o0p0q0r0s0t0u0v0w0x",
" 0 C0y0z0A0B0C0D0E0F0G0H0I0J0K08",
" 0 q A0L0n0M0N    0O0P0Q0R0S0T 0",
"   00U0V0W0X0Y    0Z0Q0&1 1011  ",
"   0 012131415161718191a1b1c 0  ",
"     0 01d1e1f1g1h1i1j1k W 0    ",
"         0 01l11111m08 0        "};

