/* XPM */
static char * WxMenuBar1_ID_MNU_DELETEPACKAGE_1004_XPM_xpm[] = {
"16 16 201 2",
"  	c None",
". 	c #51590D",
"+ 	c #6C7334",
"@ 	c #6D7435",
"# 	c #6B7232",
"$ 	c #4D5506",
"% 	c #808751",
"& 	c #A1A3A1",
"* 	c #AAADAB",
"= 	c #AAADAC",
"- 	c #ABAEAD",
"; 	c #ACAFAE",
"> 	c #ADB0AF",
", 	c #AEB1B0",
"' 	c #B0B3B1",
") 	c #B1B4B2",
"! 	c #B1B4B3",
"~ 	c #BEC2BD",
"{ 	c #767D43",
"] 	c #646B28",
"^ 	c #959A8E",
"/ 	c #4C4F4D",
"( 	c #5D5F5A",
"_ 	c #5F615D",
": 	c #626460",
"< 	c #656763",
"[ 	c #686A65",
"} 	c #6A6C68",
"| 	c #6D6F6A",
"1 	c #70726D",
"2 	c #737570",
"3 	c #757773",
"4 	c #A3A7A0",
"5 	c #B4B9A1",
"6 	c #596118",
"7 	c #787F46",
"8 	c #646868",
"9 	c #4A4E4C",
"0 	c #A6AAA3",
"a 	c #CED1CC",
"b 	c #747B3F",
"c 	c #8B9261",
"d 	c #999E9F",
"e 	c #8F9391",
"f 	c #A6A9A6",
"g 	c #A7AAA8",
"h 	c #A8ABA9",
"i 	c #ABAEAC",
"j 	c #ACAFAD",
"k 	c #AEB1AE",
"l 	c #AFB2B0",
"m 	c #B1B4B1",
"n 	c #B2B5B3",
"o 	c #B7BAB6",
"p 	c #D4D6D3",
"q 	c #89905F",
"r 	c #616827",
"s 	c #767C48",
"t 	c #797F4A",
"u 	c #777E4A",
"v 	c #777D49",
"w 	c #767D49",
"x 	c #767C49",
"y 	c #757B48",
"z 	c #747A48",
"A 	c #737A48",
"B 	c #737947",
"C 	c #727846",
"D 	c #717746",
"E 	c #707646",
"F 	c #707544",
"G 	c #5F6726",
"H 	c #5F6A07",
"I 	c #939E36",
"J 	c #B5C051",
"K 	c #B2BC4F",
"L 	c #AAB54C",
"M 	c #A3AC49",
"N 	c #9AA345",
"O 	c #919A42",
"P 	c #8A923F",
"Q 	c #828B3C",
"R 	c #798238",
"S 	c #6F7733",
"T 	c #686F31",
"U 	c #666F25",
"V 	c #5D6707",
"W 	c #8D9836",
"X 	c #B0BA4F",
"Y 	c #ACB652",
"Z 	c #B0B963",
"` 	c #C4CB91",
" .	c #AEB66D",
"..	c #9DA655",
"+.	c #8D9742",
"@.	c #899242",
"#.	c #8D954C",
"$.	c #7E8738",
"%.	c #5C6707",
"&.	c #8B9439",
"*.	c #B4BE50",
"=.	c #AEB94E",
"-.	c #B1BB60",
";.	c #B4BD6E",
">.	c #B3BB73",
",.	c #CDD2A7",
"'.	c #A9B16D",
").	c #97A055",
"!.	c #979E5A",
"~.	c #959D59",
"{.	c #80883D",
"].	c #88923A",
"^.	c #B6C155",
"/.	c #B9C360",
"(.	c #D2D8A0",
"_.	c #C8CF91",
":.	c #AEB763",
"<.	c #B2BA71",
"[.	c #B5BC7E",
"}.	c #A1AA62",
"|.	c #98A058",
"1.	c #929A54",
"2.	c #939B57",
"3.	c #7D853B",
"4.	c #848D38",
"5.	c #BCC663",
"6.	c #BEC766",
"7.	c #BDC66D",
"8.	c #D7DCAC",
"9.	c #BFC781",
"0.	c #AAB35D",
"a.	c #A4AD5A",
"b.	c #A2A95E",
"c.	c #B4BA82",
"d.	c #9CA361",
"e.	c #8E964E",
"f.	c #939A55",
"g.	c #777E35",
"h.	c #808835",
"i.	c #C3CB72",
"j.	c #BCC664",
"k.	c #B6C062",
"l.	c #C3CA85",
"m.	c #B7BE72",
"n.	c #A5AE57",
"o.	c #B3BA78",
"p.	c #A7B06A",
"q.	c #A5AC6A",
"r.	c #90984F",
"s.	c #8A9348",
"t.	c #929A55",
"u.	c #6C742A",
"v.	c #737C27",
"w.	c #C2CB72",
"x.	c #B8C25F",
"y.	c #B2BC5A",
"z.	c #B1B95F",
"A.	c #BDC581",
"B.	c #A4AC58",
"C.	c #CACFA3",
"D.	c #C6CBA0",
"E.	c #AAB076",
"F.	c #879042",
"G.	c #868F41",
"H.	c #646B1F",
"I.	c #656E1A",
"J.	c #C2CB70",
"K.	c #B4BE57",
"L.	c #ADB854",
"M.	c #A8B151",
"N.	c #A1AB4D",
"O.	c #9BA449",
"P.	c #A8AF67",
"Q.	c #939C4B",
"R.	c #889140",
"S.	c #858E3F",
"T.	c #555D13",
"U.	c #4C530E",
"V.	c #AEB663",
"W.	c #BAC369",
"X.	c #B6BD66",
"Y.	c #AFB863",
"Z.	c #AAB361",
"`.	c #A6AE60",
" +	c #A1A95D",
".+	c #9CA35B",
"++	c #969D5A",
"@+	c #899150",
"#+	c #3A4009",
"$+	c #1B1E02",
"%+	c #4E5510",
"&+	c #575E13",
"*+	c #555D12",
"=+	c #545C12",
"-+	c #535B11",
";+	c #525A11",
">+	c #515911",
",+	c #505810",
"'+	c #4F5710",
")+	c #40460B",
"!+	c #060700",
"  . + @ @ @ @ @ @ @ @ @ @ # $   ",
"$ % & * = - ; > , , ' ) ! ~ {   ",
"] ^ / ( _ : < [ } | 1 2 3 4 5 6 ",
"7 8 9 ( _ : < [ } | 1 2 3 0 a b ",
"c d e f g h * i j k l m n o p q ",
"r s t u v w x y z A B C D E F G ",
"H I J J K L M N O P Q R S T U H ",
"V W J J J X Y Z `  ...+.@.#.$.%.",
"  &.J J *.=.-.;.>.,.'.).!.~.{.  ",
"  ].^.J /.(._.:.<.[.}.|.1.2.3.  ",
"  4.5.6.7.8.9.0.a.b.c.d.e.f.g.  ",
"  h.i.j.k.l.m.n.o.p.q.r.s.t.u.  ",
"  v.w.x.y.z.A.B.C.D.E.F.G.1.H.  ",
"  I.J.K.L.M.N.O.P.Q.R.S.S.~.T.  ",
"  U.V.W.X.Y.Z.`. +.+!.++++@+#+  ",
"  $+%+&+*+=+-+;+>+,+'+'+'+)+!+  "};
