/* XPM */
static char *WxMenuBar1_ID_MNU_INSTALLPACKAGE_1002_XPM[]={
/* WxMenuBar1_ID_MNU_INSTALLPACKAGE_1002 */
"16 16 116 2",
"      c None",
" 0    c #3465A4",
" 1    c #3667A6",
" 2    c #ADC6E5",
" 3    c #E78273",
" 4    c #E68070",
" 5    c #E67E6E",
" 6    c #E67C6C",
" 7    c #E57A6A",
" 8    c #E57968",
" 9    c #E57766",
" a    c #E47564",
" b    c #E47362",
" c    c #E47160",
" d    c #E3705E",
" e    c #E36E5C",
" f    c #9BB6DB",
" g    c #AAC3E4",
" h    c #D41F03",
" i    c #D31C00",
" j    c #99B4DB",
" k    c #A7C0E2",
" l    c #EDA398",
" m    c #EDA297",
" n    c #95B1D9",
" o    c #A3BDE0",
" p    c #FFFFFF",
" q    c #91ADD6",
" r    c #9FBADE",
" s    c #FCFCFC",
" t    c #DEDEDE",
" u    c #8CA9D3",
" v    c #9CB7DB",
" w    c #89A6D0",
" x    c #98B3D9",
" y    c #84A1CD",
" z    c #95B0D7",
" A    c #809DCA",
" B    c #90ABD4",
" C    c #6189C2",
" D    c #69788D",
" E    c #6D6E70",
" F    c #6D6F71",
" G    c #66778F",
" H    c #5C81BB",
" I    c #7B99C8",
" J    c #8CA8D2",
" K    c #6184B8",
" L    c #6E6F70",
" M    c #B1B1B1",
" N    c #B8B8B8",
" O    c #BEBEBE",
" P    c #C3C3C3",
" Q    c #BFBFBF",
" R    c #B7B7B7",
" S    c #B0B0B0",
" T    c #A7A7A7",
" U    c #6C6D6E",
" V    c #5B7DB4",
" W    c #7795C5",
" X    c #88A4CF",
" Y    c #5F81B6",
" Z    c #6F7173",
" &    c #C6C6C6",
"0     c #6C6C6C",
"00    c #BABABA",
"01    c #B2B2B2",
"02    c #AAAAAA",
"03    c #A3A3A3",
"04    c #9B9B9B",
"05    c #6C6D6F",
"06    c #5A7BB2",
"07    c #7291C1",
"08    c #5E7FB4",
"09    c #707173",
"0a    c #9F9F9F",
"0b    c #989898",
"0c    c #909090",
"0d    c #888888",
"0e    c #5878AE",
"0f    c #6D8CBE",
"0g    c #7F9CC9",
"0h    c #6181B4",
"0i    c #6F7072",
"0j    c #ABABAB",
"0k    c #949494",
"0l    c #8C8C8C",
"0m    c #858585",
"0n    c #7D7D7D",
"0o    c #757575",
"0p    c #6B6C6E",
"0q    c #5677AC",
"0r    c #6988BB",
"0s    c #3666A5",
"0t    c #517AB2",
"0u    c #7792BC",
"0v    c #6F7071",
"0w    c #808080",
"0x    c #7B7B7B",
"0y    c #818181",
"0z    c #7A7A7A",
"0A    c #727272",
"0B    c #6B6B6B",
"0C    c #6481B0",
"0D    c #6483B8",
"0E    c #3566A4",
"0F    c #3B689F",
"0G    c #6B6C6C",
"0H    c #6B6D6F",
"0I    c #6B6C6F",
"0J    c #6A6C6E",
"0K    c #6A6B6D",
"0L    c #6B6B6C",
"0M    c #3B679E",
"0N    c #3866A5",
"0O    c #3565A4",
"   0 0 0 0 0 0 0 0 0 0 0 0 0 0 1",
" 0 2 3 4 5 6 7 8 9 a b c d e f 0",
" 0 g h i i i i i i i i i i i j 0",
" 0 k l m m m m m m m m m m m n 0",
" 0 o p p p p p p p p p p p p q 0",
" 0 r s t t t t t t t t t t p u 0",
" 0 v p p p p p p p p p p p p w 0",
" 0 x p t t t t t t t t t t s y 0",
" 0 z p p p p p p p p p p p p A 0",
" 0 B C D E E E E E F F E G H I 0",
" 0 J K L M N O P Q R S T U V W 0",
" 0 X Y Z &0 0 0001020304050607 0",
" 0 y0809 O0 0  T0a0b0c0d050e0f 0",
" 00g0h0i0j0 0 0k0l0m0n0o0p0q0r 0",
"0s0t0u0v0b0w0x0y0z0A0B0B0p0C0D 0",
" 00E0F0G0H0I0J0J0K0K0K0K0L0M0N0O"};

