/* XPM */
static char *FileForm_btnLoad_XPM[]={
/* FileForm_btnLoad */
"16 16 133 2",
"      c None",
" 0    c #4C4C4C",
" 1    c #6A6A6A",
" 2    c #6D6D6D",
" 3    c #6E6E6E",
" 4    c #707070",
" 5    c #757575",
" 6    c #7B7B7B",
" 7    c #808080",
" 8    c #858585",
" 9    c #8A8A8A",
" a    c #8F8F8F",
" b    c #8D8D8D",
" c    c #7F7F7F",
" d    c #646464",
" e    c #696969",
" f    c #636363",
" g    c #D3D3D3",
" h    c #F4F4F4",
" i    c #F5F5F5",
" j    c #F6F6F6",
" k    c #F7F7F7",
" l    c #F8F8F8",
" m    c #F9F9F9",
" n    c #A8A8A8",
" o    c #686868",
" p    c #BBBBBB",
" q    c #ADADAD",
" r    c #A3A3A3",
" s    c #CDCDCD",
" t    c #D2D2D2",
" u    c #C4C4C4",
" v    c #C5C5C5",
" w    c #C6C6C6",
" x    c #C7C7C7",
" y    c #E3E3E3",
" z    c #9B9B9B",
" A    c #666666",
" B    c #9D9D9D",
" C    c #888888",
" D    c #D6D6D6",
" E    c #BABABA",
" F    c #BCBCBC",
" G    c #D9D9D9",
" H    c #DADADA",
" I    c #8B8B8B",
" J    c #5E5E5E",
" K    c #A9A9A9",
" L    c #878787",
" M    c #D4D4D4",
" N    c #B2B2B2",
" O    c #B1B1B1",
" P    c #B3B3B3",
" Q    c #787878",
" R    c #5A5A5A",
" S    c #A0A0A0",
" T    c #989898",
" U    c #ABABAB",
" V    c #ACACAC",
" W    c #A7A7A7",
" X    c #969696",
" Y    c #7C7C7C",
" Z    c #B2B5B8",
" &    c #6E90BB",
"0     c #8DA9CB",
"00    c #8CA8CB",
"01    c #8BA8CB",
"02    c #86A4C6",
"03    c #88A7CC",
"04    c #5881B6",
"05    c #8C8C8C",
"06    c #848484",
"07    c #A2ACB8",
"08    c #93B1D3",
"09    c #83AAD4",
"0a    c #82AAD4",
"0b    c #81A9D3",
"0c    c #80A8D3",
"0d    c #7FA7D2",
"0e    c #7EA7D2",
"0f    c #8CB1D7",
"0g    c #5E88BB",
"0h    c #899DB6",
"0i    c #90B2D6",
"0j    c #7DA6D2",
"0k    c #7CA5D2",
"0l    c #7CA5D1",
"0m    c #77A2D0",
"0n    c #89AED6",
"0o    c #4370AD",
"0p    c #828282",
"0q    c #7694B8",
"0r    c #8DB1D7",
"0s    c #7BA5D1",
"0t    c #79A4D1",
"0u    c #739FCE",
"0v    c #719ECE",
"0w    c #759CC9",
"0x    c #3869A7",
"0y    c #676767",
"0z    c #6384AD",
"0A    c #7FA6D2",
"0B    c #78A2D0",
"0C    c #76A1CF",
"0D    c #74A0CF",
"0E    c #729ECE",
"0F    c #5985B9",
"0G    c #3465A4",
"0H    c #707479",
"0I    c #5981B2",
"0J    c #6D9CCD",
"0K    c #6D9BCD",
"0L    c #6C9BCD",
"0M    c #6B9BCD",
"0N    c #6B9ACD",
"0O    c #6F9DCE",
"0P    c #4171AE",
"0Q    c #4C6A91",
"0R    c #5F91C8",
"0S    c #6395CB",
"0T    c #6295CB",
"0U    c #6294CB",
"0V    c #6194CB",
"0W    c #5284BD",
"0X    c #326099",
"0Y    c #434343",
"0Z    c #3E5B80",
"0&    c #3D608C",
"1     c #3E608C",
"10    c #3E618C",
"11    c #3B6190",
"12    c #2D5382",
"13    c #000000",
"       0 1 2 3 4 5 6 7 8 9 a b c",
" d e e f g h i i j j k k l m n  ",
" o p q r s t u v v v w w x y z  ",
" A q B C D w E p p F F F G H I  ",
" J K B L M N O O O N N P P F Q  ",
" R S T U V W W W n n K O N L J  ",
" R X Y Z &0 0 0 0 0 000001020304",
" R05060708090a0b0b0c0c0d0e0e0f0g",
"   C a0h0i0c0c0d0e0j0j0k0l0m0n0o",
"  0p L0q0r0j0j0k0l0s0t0m0u0v0w0x",
"   Q0y0z0A0B0C0D0u0E0v0v0v0D0F0G",
"   40H0I0J0K0K0L0L0L0L0M0N0O0P  ",
"   10Q0R0S0S0S0T0T0U0U0V0V0W0X  ",
"  0Y0Z0&1 0&0&0&10101010111213  ",
"    131313131313131313131313    ",
"                                "};

