/* XPM */
static char *PackMaker2Frm_btnAddItem_XPM[]={
/* PackMaker2Frm_btnAddItem */
"16 16 55 1",
"      c None",
"0     c #3F6EAD",
"1     c #4171AC",
"2     c #3C6FAB",
"3     c #4672AF",
"4     c #BDD1E8",
"5     c #4472AD",
"6     c #B3CCE5",
"7     c #B2CBE5",
"8     c #5555AA",
"9     c #336699",
"a     c #4573AE",
"b     c #B0C8E5",
"c     c #4372AD",
"d     c #40609F",
"e     c #6389BC",
"f     c #8FADD1",
"g     c #90ADD2",
"h     c #8FAED2",
"i     c #AFC8E4",
"j     c #AEC7E4",
"k     c #85A7D0",
"l     c #83A5CD",
"m     c #81A4CD",
"n     c #5983B8",
"o     c #7FA2CC",
"p     c #82AAD4",
"q     c #82A9D5",
"r     c #81A8D5",
"s     c #81A8D6",
"t     c #7FA7D7",
"u     c #7BA5D6",
"v     c #79A3D6",
"w     c #75A1D5",
"x     c #678FC2",
"y     c #547FB4",
"z     c #7499C7",
"A     c #7297C6",
"B     c #7197C6",
"C     c #84ACD7",
"D     c #80A9D6",
"E     c #6690C2",
"F     c #628CC1",
"G     c #5F8BC1",
"H     c #4674AE",
"I     c #4372AE",
"J     c #81A9D7",
"K     c #7DA6D6",
"L     c #79A4D4",
"M     c #4170AB",
"N     c #000000",
"O     c #3D6BA5",
"P     c #608BC0",
"Q     c #5D88BE",
"R     c #3B6AA4",
"                ",
"                ",
"                ",
"      0112      ",
"      3445      ",
"      3675      ",
"    89a7bcddd   ",
"   efghijklmn   ",
"   opqrstuvwx   ",
"   yzABCDEFGH   ",
"      IJK1      ",
"      IKLM      ",
"    NNOPQRNNN   ",
"     NNNNNNN    ",
"                ",
"                "};

