/* XPM */
static char *PackMaker2Frm_WxBitmapButton2_XPM[]={
/* PackMaker2Frm_WxBitmapButton2 */
"16 16 93 2",
"      c None",
" 0    c #BCBCBC",
" 1    c #DBDBDB",
" 2    c #DCDCDC",
" 3    c #D8D8D8",
" 4    c #D6D6D6",
" 5    c #D3D3D3",
" 6    c #D6D5BD",
" 7    c #E0DC89",
" 8    c #E5DF71",
" 9    c #CEC858",
" a    c #FFF308",
" b    c #DADADA",
" c    c #DDDDDD",
" d    c #DFDFDF",
" e    c #E0E0E0",
" f    c #E1E1E1",
" g    c #E2E2E2",
" h    c #E3E3E3",
" i    c #E3E3DC",
" j    c #EFEA88",
" k    c #F8F04B",
" l    c #FCF33E",
" m    c #F8EF33",
" n    c #FFF415",
" o    c #D9D9D9",
" p    c #E4E4E4",
" q    c #E5E5E5",
" r    c #EAE7B9",
" s    c #F6EF5E",
" t    c #FCF55D",
" u    c #FDF9A3",
" v    c #FBF684",
" w    c #FFF41F",
" x    c #FFF30F",
" y    c #E6E6E6",
" z    c #E7E7E7",
" A    c #ECE9B2",
" B    c #F8F055",
" C    c #FDF671",
" D    c #FEFCD5",
" E    c #FCF7A1",
" F    c #FFF52C",
" G    c #FFF410",
" H    c #D7D7D7",
" I    c #E8E8E8",
" J    c #E9E9E9",
" K    c #EBEACD",
" L    c #F5EF71",
" M    c #FCF340",
" N    c #FBF35A",
" O    c #FFF41B",
" P    c #FFF30C",
" Q    c #D5D5D5",
" R    c #EBEBEB",
" S    c #ECECEC",
" T    c #F0EDB3",
" U    c #F6F072",
" V    c #F9F156",
" W    c #EEE653",
" X    c #FFF303",
" Y    c #EAEAEA",
" Z    c #EDEDED",
" &    c #EEEEEE",
"0     c #EEEEE2",
"00    c #EFEED6",
"01    c #CDCCC1",
"02    c #D2D2D2",
"03    c #EFEFEF",
"04    c #F0F0F0",
"05    c #C9C9C9",
"06    c #D1D1D1",
"07    c #F1F1F1",
"08    c #F2F2F2",
"09    c #C8C8C8",
"0a    c #CDCDCD",
"0b    c #DEDEDE",
"0c    c #F3F3F3",
"0d    c #F4F4F4",
"0e    c #F5F5F5",
"0f    c #CCCCCC",
"0g    c #F6F6F6",
"0h    c #F7F7F7",
"0i    c #CACACA",
"0j    c #F8F8F8",
"0k    c #F9F9F9",
"0l    c #919191",
"0m    c #C2C2C2",
"0n    c #C3C3C3",
"0o    c #C4C4C4",
"0p    c #C5C5C5",
"0q    c #8F8F8F",
"0r    c #000000",
"                                ",
"     0 1 2 1 1 3 4 5 6 7 8 9 a  ",
"     b c d e f g h i j k l m n a",
"     o d e g h p q r s t u v w x",
"     3 e g h q y z A B C D E F G",
"     H b h q y I J K L M C N O P",
"     Q h p z I J R S T U V W x X",
"     5 p q I Y R Z Z &0 0001    ",
"    02 q y J R Z &0304040405    ",
"    06 y z Y S &040708080809    ",
"    0a0b I R Z03070c0d0e0d09    ",
"    0f z J S &04080d0g0h0g09    ",
"    0i I J S &070c0e0j0k0h09    ",
"    05 I J S &070c0e0h0j0g09    ",
"    0l0m0m0n0n0n0n0o0o0o0p0q0r  ",
"  0r0r0r0r0r0r0r0r0r0r0r0r0r0r  "};

