/* XPM */
static char *PackMaker2Frm_btnRemoveIcon_XPM[]={
/* PackMaker2Frm_btnRemoveIcon */
"16 16 158 2",
"      c None",
" 0    c #9A9B97",
" 1    c #9C9D99",
" 2    c #9B9D99",
" 3    c #989A96",
" 4    c #204A87",
" 5    c #CACBC9",
" 6    c #EFEFEF",
" 7    c #EDEDED",
" 8    c #ECECEC",
" 9    c #C9CAC8",
" a    c #2B5694",
" b    c #3664A2",
" c    c #B7BABD",
" d    c #D4D4D4",
" e    c #C8C8C8",
" f    c #C7C7C7",
" g    c #D1D1D1",
" h    c #3966A4",
" i    c #2A5593",
" j    c #38639F",
" k    c #5684BE",
" l    c #7D8182",
" m    c #7A7E80",
" n    c #75787A",
" o    c #797D80",
" p    c #7D8184",
" q    c #7F8283",
" r    c #4F7CB5",
" s    c #325E9C",
" t    c #214C89",
" u    c #5B83BB",
" v    c #5481BD",
" w    c #43699A",
" x    c #446A9C",
" y    c #456B9D",
" z    c #456C9E",
" A    c #466DA0",
" B    c #466EA1",
" C    c #476FA3",
" D    c #4870A4",
" E    c #4871A5",
" F    c #595D89",
" G    c #952939",
" H    c #5D669B",
" I    c #27528F",
" J    c #285390",
" K    c #6890C3",
" L    c #5081BF",
" M    c #7A6A91",
" N    c #D0696F",
" O    c #7F7399",
" P    c #2E5996",
" Q    c #214C88",
" R    c #4D6F9D",
" S    c #5D7DA8",
" T    c #5C7DA7",
" U    c #5E7CA8",
" V    c #5C7CA7",
" W    c #5C7BA7",
" X    c #5D7BA7",
" Y    c #5C7AA7",
" Z    c #5B79A6",
" &    c #5978A5",
"0     c #5778A5",
"00    c #5576A4",
"01    c #4E709F",
"02    c #26518B",
"03    c #81817F",
"04    c #A6A6A2",
"05    c #ABABA9",
"06    c #BABBB9",
"07    c #B6B6B5",
"08    c #B3B3B1",
"09    c #AFB0AE",
"0a    c #B7B7B6",
"0b    c #AEAEAD",
"0c    c #B5B5B4",
"0d    c #B3B3B2",
"0e    c #90908E",
"0f    c #B6B6B4",
"0g    c #A5A5A1",
"0h    c #777977",
"0i    c #AEAFAB",
"0j    c #BCBCBB",
"0k    c #BABAB9",
"0l    c #B0B0AF",
"0m    c #B2B3B1",
"0n    c #BBBCBB",
"0o    c #9E9E9C",
"0p    c #CACAC7",
"0q    c #A3A5A2",
"0r    c #6B6D69",
"0s    c #B7B8B6",
"0t    c #C3C4C2",
"0u    c #C6C6C5",
"0v    c #CECFCE",
"0w    c #BEBFBD",
"0x    c #C3C4C3",
"0y    c #CDCDCC",
"0z    c #C0C1BF",
"0A    c #C5C6C4",
"0B    c #AFB1AE",
"0C    c #D6D7D3",
"0D    c #9B9D97",
"0E    c #656765",
"0F    c #BBBCBA",
"0G    c #E5E5E4",
"0H    c #C5C6C3",
"0I    c #E4E5E4",
"0J    c #B8B8B5",
"0K    c #DCDDDB",
"0L    c #DDDDDC",
"0M    c #D2D2D1",
"0N    c #DFDFDE",
"0O    c #D4D4D3",
"0P    c #CACAC8",
"0Q    c #DEE0DC",
"0R    c #8E8F8C",
"0S    c #61615E",
"0T    c #BEC1BC",
"0U    c #B3B4B1",
"0V    c #B4B5B1",
"0W    c #B2B4B0",
"0X    c #AEB1AA",
"0Y    c #BABCB9",
"0Z    c #B3B6B1",
"0&    c #C1C3C0",
"1     c #B1B4AD",
"10    c #DFE0DE",
"11    c #787B77",
"12    c #565652",
"13    c #BBBDBA",
"14    c #BABDB6",
"15    c #C3C6BE",
"16    c #DFE0DD",
"17    c #555555",
"18    c #BBBCB8",
"19    c #B3B5AE",
"1a    c #AEB0AC",
"1b    c #AFB1AC",
"1c    c #B0B2AD",
"1d    c #AFB1AD",
"1e    c #B0B2AE",
"1f    c #B7B9B5",
"1g    c #DBDDD9",
"1h    c #5F5F5C",
"1i    c #242424",
"1j    c #A6A6A5",
"1k    c #D1D2D0",
"1l    c #CFCFCC",
"1m    c #161616",
"1n    c #000000",
"1o    c #343834",
"1p    c #4C4E49",
"1q    c #50504D",
"1r    c #4E504E",
"1s    c #292C29",
"       0 1 1 1 1 2 2 2 2 3      ",
"     4 5 6 7 7 8 8 8 8 7 9 4    ",
"   a b c d e e f e e e g c h i  ",
"   j k l m n n n o p p p q r s  ",
" t u v w x y z A B C D E F G H I",
" J K L L L L L L L L L L M N O P",
" Q R S T U V W U X Y Z &0 000102",
"  030405060708090a0b0c0d0e0f0g  ",
"  0h0i050j0k0j0l0j0m0n070o0p0q  ",
"  0r0s0t0u0v0w0x0y0z0y0A0B0C0D  ",
"  0E0F0G0H0I0J0K0L0M0N0O0P0Q0R  ",
"  0S0T0U0V0W0X 90Y0Z0&0U1 1011  ",
"  121314141414141414141415160E  ",
"  1718191a1b0i1a1c1b1d1e1f1g1h  ",
"  1i1j1k1l1l1l1l1l1l1l1l1l0s1m1n",
"  1n1o1p1q1q1q1q1q1q1q1q1r1s1n1n"};

