/* XPM */
static char *PackMaker2Frm_ID_MNU_EXIT_1091_XPM[]={
/* PackMaker2Frm_ID_MNU_EXIT_1091 */
"16 16 112 2",
"      c None",
" 0    c #A8A8A8",
" 1    c #C6C6C6",
" 2    c #DDDDDD",
" 3    c #ECECEC",
" 4    c #E2E2E2",
" 5    c #E2E0E0",
" 6    c #E3DFDF",
" 7    c #E3DDDD",
" 8    c #E3E1E1",
" 9    c #EDEDED",
" a    c #E2DFDF",
" b    c #E2D5D5",
" c    c #E3D1D1",
" d    c #E3CDCD",
" e    c #E3CBCB",
" f    c #E4CACA",
" g    c #E3C9C9",
" h    c #DEDEDE",
" i    c #E3D9D9",
" j    c #E2C3C3",
" k    c #E2C0C0",
" l    c #E4BEBE",
" m    c #E4BDBD",
" n    c #E4BCBC",
" o    c #E4D7D7",
" p    c #E4D4D4",
" q    c #E2BCBC",
" r    c #E3B7B7",
" s    c #EADEDD",
" t    c #EAD9D7",
" u    c #E2AEAE",
" v    c #EAD9D8",
" w    c #EADDDC",
" x    c #E3B3B3",
" y    c #E5D2D2",
" z    c #DFDFDF",
" A    c #E5CFCF",
" B    c #E2AFAF",
" C    c #E3AAAA",
" D    c #EAD6D5",
" E    c #EEEEEC",
" F    c #EBD9D7",
" G    c #EAD5D3",
" H    c #E3A5A5",
" I    c #E6CCCC",
" J    c #E5C9C9",
" K    c #E1A2A2",
" L    c #E29C9C",
" M    c #E09999",
" N    c #EBD5D3",
" O    c #E09595",
" P    c #E19797",
" Q    c #E6C6C6",
" R    c #E7C5C5",
" S    c #E19696",
" T    c #E18F8F",
" U    c #E08B8B",
" V    c #EAD1CF",
" W    c #E08787",
" X    c #E18989",
" Y    c #E8C2C2",
" Z    c #E0E0E0",
" &    c #E6BFBF",
"0     c #E08A8A",
"00    c #E08282",
"01    c #E9C7C5",
"02    c #EACCCA",
"03    c #E9C8C7",
"04    c #DF7A7A",
"05    c #E8BDBD",
"06    c #E6BABA",
"07    c #DF7D7D",
"08    c #DE7474",
"09    c #E9CBCA",
"0a    c #E8C3C2",
"0b    c #DD6666",
"0c    c #DD6565",
"0d    c #E8C0BE",
"0e    c #E9CAC9",
"0f    c #DE6C6C",
"0g    c #E8B7B7",
"0h    c #E6B5B5",
"0i    c #DD7171",
"0j    c #DD6868",
"0k    c #DC5E5E",
"0l    c #DB5757",
"0m    c #DB5353",
"0n    c #DC5252",
"0o    c #E7B1B1",
"0p    c #DC6767",
"0q    c #DA5B5B",
"0r    c #DA5151",
"0s    c #D94949",
"0t    c #D94343",
"0u    c #D84141",
"0v    c #C9C9C9",
"0w    c #F3ECEC",
"0x    c #E7ADAD",
"0y    c #E6A2A2",
"0z    c #E79D9D",
"0A    c #E79999",
"0B    c #E89696",
"0C    c #E7A8A8",
"0D    c #F5EDED",
"0E    c #C4C4C4",
"0F    c #000000",
"0G    c #8B8B8B",
"0H    c #BFBFBF",
"0I    c #DCDCDC",
"0J    c #BEBEBE",
"0K    c #5F5F5F",
"                                ",
"   0 1 2 2 2 2 2 2 2 2 2 2 1 0  ",
"   1 3 4 5 6 7 7 7 7 7 6 8 9 1  ",
"   2 a b c d e f g f e d c 7 2  ",
"   h i g j k l m n m l k j o h  ",
"   h p q r s t u u v w x r y z  ",
"   z A B C D E F F E G H C I z  ",
"   z J K L M G E E N O P L Q z  ",
"   z R S T U V E E V W X T Y Z  ",
"   Z &0 0001 E0202 E03040005 Z  ",
"   Z060708090a0b0c0d0e0f080g Z  ",
"   Z0h0i0j0k0l0m0n0m0l0k0j0o Z  ",
"   Z0h0p0q0r0s0t0u0t0s0r0q0o Z  ",
"  0v0w0x0y0z0A0B0B0B0A0z0C0D0E0F",
"  0G0H0I 2 h h h h h h h0I0J0K0F",
"    0F0F0F0F0F0F0F0F0F0F0F0F0F  "};

