/* XPM */
static char *PackMaker2Frm_btnEditItem_XPM[]={
/* PackMaker2Frm_btnEditItem */
"16 16 123 2",
"      c None",
" 0    c #999C96",
" 1    c #959793",
" 2    c #898989",
" 3    c #879696",
" 4    c #808080",
" 5    c #AAAAAA",
" 6    c #9C9F9B",
" 7    c #D4D5D4",
" 8    c #AFB0AD",
" 9    c #999995",
" a    c #8C92A4",
" b    c #98A2B0",
" c    c #949DAA",
" d    c #809595",
" e    c #ADAEAC",
" f    c #E7E7E7",
" g    c #A5A6A4",
" h    c #8C98A5",
" i    c #A2ADB9",
" j    c #C1CEDB",
" k    c #ADB9C6",
" l    c #8F95A5",
" m    c #A0A39E",
" n    c #A0A092",
" o    c #898986",
" p    c #C1C1C0",
" q    c #EFEFEF",
" r    c #B0B1AF",
" s    c #9097A7",
" t    c #BAC4CE",
" u    c #B2BCC8",
" v    c #919AA7",
" w    c #91918E",
" x    c #CBCCCA",
" y    c #B5B6B3",
" z    c #C2C3C0",
" A    c #E6E6E6",
" B    c #DFDFDF",
" C    c #AEAFAC",
" D    c #809280",
" E    c #8C919D",
" F    c #A4ACB6",
" G    c #A0A7B2",
" H    c #9098A5",
" I    c #929292",
" J    c #AAABA8",
" K    c #EBEBEA",
" L    c #F4F4F4",
" M    c #E9EAE9",
" N    c #CBCBCB",
" O    c #D2D2D2",
" P    c #A3A5A7",
" Q    c #A5ACB6",
" R    c #A0A6B1",
" S    c #89909D",
" T    c #8E8E80",
" U    c #A5A7A2",
" V    c #A9ABA7",
" W    c #A2A3A0",
" X    c #C4C6C3",
" Y    c #C4C5C7",
" Z    c #ABB1B9",
" &    c #A3A8B2",
"0     c #858A96",
"00    c #2C5692",
"01    c #4E6F9E",
"02    c #7D8FA7",
"03    c #AAAFB8",
"04    c #CFD0D2",
"05    c #325B96",
"06    c #6187B8",
"07    c #7C9EC8",
"08    c #476B9E",
"09    c #ADB3B9",
"0a    c #DCDCDC",
"0b    c #DADADA",
"0c    c #A6A7A3",
"0d    c #305A94",
"0e    c #6287B9",
"0f    c #6B8DB8",
"0g    c #486A98",
"0h    c #39629B",
"0i    c #939A9D",
"0j    c #C4C5C3",
"0k    c #D8D8D7",
"0l    c #A2A4A1",
"0m    c #204A87",
"0n    c #39619A",
"0o    c #7093C1",
"0p    c #9BB1CD",
"0q    c #456692",
"0r    c #456DA4",
"0s    c #234F8D",
"0t    c #A1A19F",
"0u    c #C3C4C2",
"0v    c #CFD0CF",
"0w    c #A2A4A0",
"0x    c #38609A",
"0y    c #AEC3DE",
"0z    c #B2C4DC",
"0A    c #3C5F8D",
"0B    c #4971A7",
"0C    c #265190",
"0D    c #9EA09C",
"0E    c #B7B7B7",
"0F    c #AEAFAD",
"0G    c #7D9EC7",
"0H    c #3B6090",
"0I    c #4B75AD",
"0J    c #28508B",
"0K    c #000000",
"0L    c #999B97",
"0M    c #A8A9A7",
"0N    c #9B9C98",
"0O    c #555555",
"0P    c #0C1C33",
"0Q    c #2E548C",
"0R    c #436BA1",
"0S    c #274F86",
"0T    c #02050A",
"0U    c #171717",
"0V    c #132D53",
"                                ",
"         0 1 2           3 4    ",
"       5 6 7 8 9       a b c d  ",
"     4   4 e f g     h i j k l  ",
"   0 m n o p q r     s t u v    ",
"   w x y z A B C D E F G H d    ",
"   I J K L M N O P Q R S        ",
"     T U V W X Y Z &0           ",
"          0001020304 V 5        ",
"        05060708090a0b0c        ",
"      0d0e0f0g0h0i0j0a0k0l      ",
"  0m0n0o0p0q0r0s  0t0u B0v0w    ",
"  0x0y0z0A0B0C      0D p0E0F T  ",
"  0d0G0H0I0J0K    0K0K0L0M0N0O  ",
"0K0P0Q0R0S0T0K0K0K0K0K0K0U0K0K0K",
"0K0K0K0V0K0K0K0K    0K0K0K      "};

