/* XPM */
static char *PackMaker2Frm_WxToolButton3_XPM[]={
/* PackMaker2Frm_WxToolButton3 */
"16 16 121 2",
"      c None",
" 0    c #204A87",
" 1    c #224E8B",
" 2    c #214B88",
" 3    c #2B558F",
" 4    c #6385B2",
" 5    c #89A4C8",
" 6    c #88A4C6",
" 7    c #5B7CAB",
" 8    c #234E8B",
" 9    c #264F8A",
" a    c #44689D",
" b    c #3C639A",
" c    c #5E7FAD",
" d    c #8FAACC",
" e    c #91ACCD",
" f    c #6989B4",
" g    c #6384B0",
" h    c #809FC6",
" i    c #89A5CA",
" j    c #335B95",
" k    c #344D72",
" l    c #AAAAAA",
" m    c #CBCBCB",
" n    c #C9C9C9",
" o    c #6782A8",
" p    c #7D9CC4",
" q    c #7C9CC4",
" r    c #6280AA",
" s    c #BFBFBF",
" t    c #BDBDBD",
" u    c #9A9A9A",
" v    c #535353",
" w    c #6F6F70",
" x    c #E0E3E7",
" y    c #3E6295",
" z    c #6684B0",
" A    c #6B89B4",
" B    c #7B9BC3",
" C    c #678CBA",
" D    c #839EC2",
" E    c #738FB6",
" F    c #3E6297",
" G    c #C5CBD4",
" H    c #646464",
" I    c #BBBBBB",
" J    c #E3E3E3",
" K    c #CCD1D8",
" L    c #5E7EAB",
" M    c #6589B9",
" N    c #4D78AF",
" O    c #4471AB",
" P    c #4772AC",
" Q    c #6787B3",
" R    c #A1AEC2",
" S    c #D9D9D9",
" T    c #A4A4A4",
" U    c #E4E4E4",
" V    c #BAC2CF",
" W    c #597BAA",
" X    c #4773AC",
" Y    c #3768A5",
" Z    c #6688B6",
" &    c #8196B5",
"0     c #DCDCDC",
"00    c #DBDBDB",
"01    c #D2D2D2",
"02    c #969696",
"03    c #DADADA",
"04    c #A0ADBF",
"05    c #6081AF",
"06    c #678AB8",
"07    c #637FA5",
"08    c #D0D0D0",
"09    c #838383",
"0a    c #CDCDCD",
"0b    c #D6D6D6",
"0c    c #8294AC",
"0d    c #4D6E9B",
"0e    c #C0C1C2",
"0f    c #D1D1D1",
"0g    c #B6B6B6",
"0h    c #E5E5E5",
"0i    c #E2E2E2",
"0j    c #D5D5D5",
"0k    c #D4D4D4",
"0l    c #CFD0D1",
"0m    c #DEDEDE",
"0n    c #D7D7D7",
"0o    c #CECECE",
"0p    c #CCCCCC",
"0q    c #C7C7C7",
"0r    c #C4C4C4",
"0s    c #C3C3C3",
"0t    c #C0C0C0",
"0u    c #BCBCBC",
"0v    c #9F9F9F",
"0w    c #929292",
"0x    c #A8A8A8",
"0y    c #ADADAD",
"0z    c #ABABAB",
"0A    c #A9A9A9",
"0B    c #A7A7A7",
"0C    c #A6A6A6",
"0D    c #B0B0B0",
"0E    c #ACACAC",
"0F    c #8E8E8E",
"0G    c #A5A5A5",
"0H    c #A1A1A1",
"0I    c #9E9E9E",
"0J    c #9C9C9C",
"0K    c #989898",
"0L    c #959595",
"0M    c #8F8F8F",
"0N    c #8C8C8C",
"0O    c #888888",
"0P    c #868686",
"0Q    c #848484",
"0R    c #717171",
"0S    c #3C3C3C",
"0T    c #000000",
"         0 1 2 0                ",
"     0 3 4 5 6 7 8              ",
"     9 a b c d e f 2            ",
"   0 0 0   0 g h i j            ",
"   0 k l m n o p q r s t u v    ",
"     w x y z A B C D E F G H    ",
"   v I J K L M N O P Q R S T v  ",
"   v J U J V W X Y Z &0 0001 v  ",
"  02 U J030 040506070801000309  ",
" v0a00 S0 0b0a0c0d0e m010a0f0g v",
" v0h0i00 S0j0j0k0l0f08010j0m03 v",
" v0n0o0p m n0q0q0r0s0t s0u0u0u v",
" v0f0v0w0v0x0y0y l0y0z0A0B0C0A v",
" v0f0D0D l0E0y0z0A0E l0x0C0C0B v",
" v0F0G0H0I0J0K0L0w0M0N0O0P0Q0R0S",
"  0T0T0T0T0T0T0T0T0T0T0T0T0T0T0T"};

