/* XPM */
static char *PackMaker2Frm_btnAddDir_XPM[]={
/* PackMaker2Frm_btnAddDir */
"16 16 123 2",
"      c None",
" 0    c #838383",
" 1    c #818181",
" 2    c #808080",
" 3    c #FFF304",
" 4    c #FFF305",
" 5    c #FFF301",
" 6    c #A2A2A2",
" 7    c #AEAEAE",
" 8    c #A9A9A9",
" 9    c #A5A5A5",
" a    c #999999",
" b    c #737373",
" c    c #FFF303",
" d    c #FFF30E",
" e    c #FFF415",
" f    c #FFF416",
" g    c #FFF410",
" h    c #9E9E9E",
" i    c #979797",
" j    c #919191",
" k    c #8E8E8E",
" l    c #8A8A8A",
" m    c #7B7B7B",
" n    c #868686",
" o    c #B8B355",
" p    c #E6DD31",
" q    c #F5ED4E",
" r    c #F9F251",
" s    c #FFF41D",
" t    c #929292",
" u    c #959595",
" v    c #878787",
" w    c #828282",
" x    c #7F7F7F",
" y    c #878677",
" z    c #C4BE45",
" A    c #F3EB41",
" B    c #F9F6A7",
" C    c #FBF8B7",
" D    c #FFF750",
" E    c #8B8B8B",
" F    c #798592",
" G    c #6F92BC",
" H    c #7F9FC3",
" I    c #7F9EC2",
" J    c #7E9DC2",
" K    c #7D9DC1",
" L    c #83A1B7",
" M    c #C0CA66",
" N    c #F2EC42",
" O    c #F8F59D",
" P    c #F9F7AA",
" Q    c #F4EE53",
" R    c #C2CA4F",
" S    c #848484",
" T    c #697B92",
" U    c #92B2D6",
" V    c #7DA6D2",
" W    c #A9BF8F",
" X    c #DADD4D",
" Y    c #F2ED44",
" Z    c #F2EE49",
" &    c #E2E244",
"0     c #9BB290",
"00    c #7C7C7C",
"01    c #5E7694",
"02    c #96B6D9",
"03    c #7FA7CD",
"04    c #A6BE92",
"05    c #C0CE6D",
"06    c #BFCE6D",
"07    c #99B6A6",
"08    c #6C92C0",
"09    c #747474",
"0a    c #577498",
"0b    c #99B9DB",
"0c    c #7CA5D2",
"0d    c #78A3CF",
"0e    c #719ECE",
"0f    c #81A9D3",
"0g    c #638CBD",
"0h    c #6D6D6D",
"0i    c #59789D",
"0j    c #8FB2D7",
"0k    c #7CA5D1",
"0l    c #79A4D1",
"0m    c #78A2D0",
"0n    c #76A1CF",
"0o    c #739FCE",
"0p    c #5481B7",
"0q    c #626262",
"0r    c #5A79A0",
"0s    c #80A7D2",
"0t    c #729ECE",
"0u    c #7EA7D2",
"0v    c #4978B1",
"0w    c #5E5E5E",
"0x    c #5578A2",
"0y    c #6E9CCE",
"0z    c #6B9ACD",
"0A    c #6A9ACD",
"0B    c #6A99CD",
"0C    c #6999CD",
"0D    c #6999CC",
"0E    c #709DCE",
"0F    c #3F70AD",
"0G    c #585B5E",
"0H    c #4C75A7",
"0I    c #6194CB",
"0J    c #5689C0",
"0K    c #38679F",
"0L    c #3F4D5B",
"0M    c #3F618C",
"0N    c #3D608C",
"0O    c #3C5F8B",
"0P    c #3C5F8A",
"0Q    c #3B5E8A",
"0R    c #3A5D89",
"0S    c #3A5D88",
"0T    c #385E8E",
"0U    c #2D5380",
"0V    c #000000",
"                                ",
"   0 0 0 1 1 2         3 4 5    ",
"   6 7 8 9 6 a b   c d e f g 4  ",
"   a h i j k l m n o p q r s g 5",
"   t u k v w 2 x y z A B C D f 4",
"   E F G H I J K L M N O P Q R 3",
"   S T U V V V V V W X Y Z &0   ",
"  000102 V V V V V030405060708  ",
"  090a0b V V V V V V0c0d0e0f0g  ",
"  0h0i0j V0k0l0m0n0o0e0e0e0f0p  ",
"  0q0r0s0t0e0e0e0e0e0e0e0e0u0v  ",
"  0w0x0y0z0A0A0A0B0C0C0C0D0E0F  ",
"  0G0H0I0I0I0I0I0I0I0I0I0I0J0K  ",
"  0L0M0N0O0P0Q0R0S0S0R0Q0T0U0V  ",
"    0V                  0V0V    ",
"                                "};

