/* XPM */
static char *PackMaker2Frm_ID_MNU_BUILD_1089_XPM[]={
/* PackMaker2Frm_ID_MNU_BUILD_1089 */
"16 16 164 2",
"      c None",
" 0    c #4C5573",
" 1    c #616D89",
" 2    c #4F5875",
" 3    c #3F4561",
" 4    c #4B5470",
" 5    c #57617D",
" 6    c #768AAD",
" 7    c #707B95",
" 8    c #464E6C",
" 9    c #676F88",
" a    c #959CAF",
" b    c #5D657F",
" c    c #606882",
" d    c #78819A",
" e    c #6B7EA5",
" f    c #8D99B3",
" g    c #59627F",
" h    c #4A526F",
" i    c #68708A",
" j    c #7F88A1",
" k    c #505875",
" l    c #7B8298",
" m    c #B6C0D2",
" n    c #BCC3D3",
" o    c #C2C9D8",
" p    c #9FABC5",
" q    c #6579A2",
" r    c #6A7CA5",
" s    c #8897B7",
" t    c #9AA4BE",
" u    c #7C8BB0",
" v    c #979FB9",
" w    c #59607C",
" x    c #565D78",
" y    c #B1B7C7",
" z    c #B3BCD1",
" A    c #A7B2CA",
" B    c #6E7EA7",
" C    c #7281A9",
" D    c #7382AA",
" E    c #7583AB",
" F    c #7785AD",
" G    c #97A1BF",
" H    c #606782",
" I    c #5F6580",
" J    c #C7CCDA",
" K    c #B9C0D4",
" L    c #B4BCD1",
" M    c #9EA7C0",
" N    c #767D97",
" O    c #8B91AB",
" P    c #98A1C0",
" Q    c #828CB3",
" R    c #8E96B9",
" S    c #757B95",
" T    c #616881",
" U    c #72778F",
" V    c #9297AA",
" W    c #C4C9DB",
" X    c #B3BAD1",
" Y    c #A0A6C1",
" Z    c #4F5572",
" &    c #474D6A",
"0     c #777C96",
"00    c #949ABC",
"01    c #B6BAD3",
"02    c #C3C6D6",
"03    c #868A9F",
"04    c #70748E",
"05    c #515774",
"06    c #83889E",
"07    c #CCD0E0",
"08    c #C5C9DB",
"09    c #A9AFCA",
"0a    c #A3AAC7",
"0b    c #8388A2",
"0c    c #5C627E",
"0d    c #B1B4CF",
"0e    c #C5C7DB",
"0f    c #C4C6DA",
"0g    c #ABACCB",
"0h    c #C5C6DA",
"0i    c #565B78",
"0j    c #676C85",
"0k    c #84899E",
"0l    c #AFB2C4",
"0m    c #9FA4C4",
"0n    c #9498BD",
"0o    c #A3A6BF",
"0p    c #4E5471",
"0q    c #6F738D",
"0r    c #C6C6DC",
"0s    c #CCCBDF",
"0t    c #BEBED5",
"0u    c #7A7D96",
"0v    c #72758E",
"0w    c #585C78",
"0x    c #616681",
"0y    c #B4B6D1",
"0z    c #9EA0C3",
"0A    c #AFAFCD",
"0B    c #8F92AA",
"0C    c #696D88",
"0D    c #767A93",
"0E    c #B4B3CA",
"0F    c #D3D2E4",
"0G    c #BEBBD6",
"0H    c #9A9BB2",
"0I    c #444A66",
"0J    c #4A506D",
"0K    c #ACAEC3",
"0L    c #A9A7CA",
"0M    c #ABA9CB",
"0N    c #AFACCC",
"0O    c #C0BCD7",
"0P    c #BDB9D5",
"0Q    c #CCC9DF",
"0R    c #D9D6E7",
"0S    c #C0B9D7",
"0T    c #7A7C94",
"0U    c #686B86",
"0V    c #BFBDD5",
"0W    c #BEB9D6",
"0X    c #BCB7D5",
"0Y    c #B8B2D3",
"0Z    c #BBB4D4",
"0&    c #BFB7D7",
"1     c #D4CFE4",
"10    c #E2DEEC",
"11    c #CCC2DE",
"12    c #C5C0D6",
"13    c #636681",
"14    c #464B68",
"15    c #8F90A7",
"16    c #C5C1D7",
"17    c #7A7B94",
"18    c #87879F",
"19    c #C5C0D5",
"1a    c #D2C9E2",
"1b    c #ADACBE",
"1c    c #7A7C92",
"1d    c #7F8098",
"1e    c #D0CBDE",
"1f    c #6A6C86",
"1g    c #5B5E79",
"1h    c #656781",
"1i    c #141620",
"1j    c #0B0C11",
"1k    c #545770",
"1l    c #D2CAE0",
"1m    c #B8B5C9",
"1n    c #3E4156",
"1o    c #000000",
"1p    c #151720",
"1q    c #5B5E78",
"1r    c #222535",
"1s    c #373A4E",
"1t    c #C1BED0",
"1u    c #9493A9",
"1v    c #101118",
"1w    c #1E212E",
"1x    c #555771",
"1y    c #4E516A",
"             0 1 2              ",
"     3 4     5 6 7 3   3 8      ",
"   3 9 a b c d e f g h i j k    ",
"   3 l m n o p q r s t u v w    ",
"     x y z A B C D E F G H 3    ",
"     I J K L M N O P Q R S 3    ",
" T U V W X Y Z 3 &0 000102030405",
"060708090a0b 3    0c0d0e0f0g0h0i",
"0j0k0l0m0n0o0p   30q0r0s0t0u0v0w",
"   30x0y0z0A0B0C0D0E0F0G0H0I    ",
"    0J0K0L0M0N0O0P0Q0R0S0T 3    ",
"   30U0V0W0X0Y0Z0&1 10111213    ",
"  141516171819111a1b1c1d1e1f    ",
"    1g1h1i1j1k1l1m1n1o1p1q1r1o  ",
"    1o1o1o1o1s1t1u1v1o1o1o1o    ",
"        1o1o1w1x1y1o1o1o        "};

