/* XPM */
static char *WxMenuBar1_ID_MNU_SAVEAS____1087_XPM[]={
/* WxMenuBar1_ID_MNU_SAVEAS____1087 */
"16 16 116 2",
"      c None",
" 0    c #204A87",
" 1    c #224E8B",
" 2    c #214B88",
" 3    c #2B558F",
" 4    c #6385B2",
" 5    c #89A4C8",
" 6    c #88A4C6",
" 7    c #5B7CAB",
" 8    c #234E8B",
" 9    c #264F8A",
" a    c #44689D",
" b    c #3C639A",
" c    c #5E7FAD",
" d    c #8FAACC",
" e    c #91ACCD",
" f    c #6989B4",
" g    c #6384B0",
" h    c #809FC6",
" i    c #89A5CA",
" j    c #335B95",
" k    c #344D72",
" l    c #AAAAAA",
" m    c #CBCBCB",
" n    c #C9C9C9",
" o    c #6782A8",
" p    c #7D9CC4",
" q    c #7C9CC4",
" r    c #6280AA",
" s    c #BFBFBF",
" t    c #BDBDBD",
" u    c #9A9A9A",
" v    c #535353",
" w    c #6F6F70",
" x    c #E0E3E7",
" y    c #3E6295",
" z    c #6684B0",
" A    c #6B89B4",
" B    c #7B9BC3",
" C    c #678CBA",
" D    c #839EC2",
" E    c #738FB6",
" F    c #3E6297",
" G    c #C5CBD4",
" H    c #646464",
" I    c #BBBBBB",
" J    c #E3E3E3",
" K    c #CCD1D8",
" L    c #5E7EAB",
" M    c #6589B9",
" N    c #4D78AF",
" O    c #4471AB",
" P    c #4772AC",
" Q    c #6787B3",
" R    c #A1AEC2",
" S    c #D9D9D9",
" T    c #A4A4A4",
" U    c #E4E4E4",
" V    c #BAC2CF",
" W    c #597BAA",
" X    c #4773AC",
" Y    c #3768A5",
" Z    c #6688B6",
" &    c #8196B5",
"0     c #DCDCDC",
"00    c #DBDBDB",
"01    c #D2D2D2",
"02    c #969696",
"03    c #DADADA",
"04    c #A0ADBF",
"05    c #6081AF",
"06    c #678AB8",
"07    c #637FA5",
"08    c #D0D0D0",
"09    c #838383",
"0a    c #CDCDCD",
"0b    c #D6D6D6",
"0c    c #8294AC",
"0d    c #4D6E9B",
"0e    c #C0C1C2",
"0f    c #D1D1D1",
"0g    c #B6B6B6",
"0h    c #C4C4C4",
"0i    c #A9A9A9",
"0j    c #ABABAB",
"0k    c #A8A8A8",
"0l    c #ADADAD",
"0m    c #CECECE",
"0n    c #ACACAC",
"0o    c #787878",
"0p    c #F1F1F1",
"0q    c #A3A3A3",
"0r    c #D5D5D5",
"0s    c #B0B0B0",
"0t    c #7D7D7D",
"0u    c #FCFCFC",
"0v    c #9C9C9C",
"0w    c #BABABA",
"0x    c #B2B2B2",
"0y    c #B1B1B1",
"0z    c #A0A0A0",
"0A    c #8E8E8E",
"0B    c #A5A5A5",
"0C    c #A1A1A1",
"0D    c #9E9E9E",
"0E    c #989898",
"0F    c #959595",
"0G    c #929292",
"0H    c #8F8F8F",
"0I    c #8C8C8C",
"0J    c #888888",
"0K    c #868686",
"0L    c #848484",
"0M    c #717171",
"0N    c #3C3C3C",
"0O    c #000000",
"         0 1 2 0                ",
"     0 3 4 5 6 7 8              ",
"     9 a b c d e f 2            ",
"   0 0 0   0 g h i j            ",
"   0 k l m n o p q r s t u v    ",
"     w x y z A B C D E F G H    ",
"   v I J K L M N O P Q R S T v  ",
"   v J U J V W X Y Z &0 0001 v  ",
"  02 U J030 040506070801000309  ",
" v0a00 S0 0b0a0c0d0e m010a0f0g v",
" v0h0i0j0j l l l l l l l l0k t v",
" v0l0m0n0n0n0n0m0o0p0p0p0p0p0q v",
" v0j0r0s0s0s0s0r0t0u0u0u0u0u0v v",
" v0w0n0x0y0y0x0y0y0y0y0y0y0j0z v",
" v0A0B0C0D0v0E0F0G0H0I0J0K0L0M0N",
"  0O0O0O0O0O0O0O0O0O0O0O0O0O0O0O"};

