/* XPM */
static char *WxMenuBar1_ID_MNU_ABOUT_1092_XPM[]={
/* WxMenuBar1_ID_MNU_ABOUT_1092 */
"16 16 109 2",
"      c None",
" 0    c #616471",
" 1    c #616573",
" 2    c #636D84",
" 3    c #62687B",
" 4    c #75809B",
" 5    c #8FA5CE",
" 6    c #93ADDF",
" 7    c #96B1DD",
" 8    c #9FB0D2",
" 9    c #818BA3",
" a    c #7A87A6",
" b    c #8DABE2",
" c    c #97B4E0",
" d    c #B1C8E1",
" e    c #BED1E6",
" f    c #ADC5DF",
" g    c #9BB7D8",
" h    c #939FB5",
" i    c #6B7691",
" j    c #8EABDF",
" k    c #BACDEA",
" l    c #C2D4E7",
" m    c #C6D6E9",
" n    c #C7D7E9",
" o    c #C5D6E8",
" p    c #9CB9D9",
" q    c #AEC4DF",
" r    c #768196",
" s    c #7B8AA9",
" t    c #95B2E3",
" u    c #BCD0E5",
" v    c #C4D5E8",
" w    c #CAD9EA",
" x    c #CDDBEC",
" y    c #CCDBEB",
" z    c #ADC4DF",
" A    c #9CB9DA",
" B    c #A0ABBD",
" C    c #8291B1",
" D    c #7CA1D0",
" E    c #CFDDEC",
" F    c #D4E0EE",
" G    c #CEDCEC",
" H    c #ABC3DD",
" I    c #9FBBDA",
" J    c #B2BACB",
" K    c #76819D",
" L    c #87A9D1",
" M    c #C6D6E7",
" N    c #C5D6E9",
" O    c #C5D0DD",
" P    c #D0D8E1",
" Q    c #C2D3E9",
" R    c #99A1B1",
" S    c #626B7E",
" T    c #92A5BD",
" U    c #AAC3DE",
" V    c #DEE6F0",
" W    c #DDE2E8",
" X    c #D8DBDF",
" Y    c #DADCDE",
" Z    c #CED8E3",
" &    c #CCD2E0",
"0     c #69707F",
"00    c #6A7485",
"01    c #B1C0D7",
"02    c #BFCEDF",
"03    c #DFE8F2",
"04    c #DADDE2",
"05    c #DEE3F0",
"06    c #7A7F8C",
"07    c #8D95A5",
"08    c #B3C0CF",
"09    c #A3ABAD",
"0a    c #AFB2A8",
"0b    c #C8CAC8",
"0c    c #BDC0CC",
"0d    c #63686D",
"0e    c #A6AAAE",
"0f    c #B7BBBA",
"0g    c #CACCC4",
"0h    c #BCBFBD",
"0i    c #75787B",
"0j    c #616136",
"0k    c #D6D8AD",
"0l    c #B2B599",
"0m    c #9C9E89",
"0n    c #86865E",
"0o    c #555530",
"0p    c #626237",
"0q    c #E3E4B7",
"0r    c #F4F7C7",
"0s    c #D2D4A2",
"0t    c #97976A",
"0u    c #585833",
"0v    c #4D4D2A",
"0w    c #989864",
"0x    c #BDBE90",
"0y    c #939369",
"0z    c #6C6C43",
"0A    c #444424",
"0B    c #000000",
"0C    c #232323",
"0D    c #6C6C6C",
"0E    c #606060",
"0F    c #171717",
"0G    c #070707",
"0H    c #050505",
"           0 1 2 2 1 0          ",
"         3 4 5 6 7 8 9 3        ",
"       0 a b c d e f g h 0      ",
"       i j k l m n o p q r      ",
"       s t u v w x y z A B      ",
"       C D u n E F G H I J      ",
"       K L u M N m O P Q R      ",
"       S T U V W X Y Z &0       ",
"        000102 w03040506        ",
"         00708090a0b0c 0        ",
"          0d0e0f0g0h0i          ",
"          0j0k0l0m0n0o          ",
"          0p0q0r0s0t0u          ",
"          0v0w0x0y0z0A0B        ",
"        0B0B0C0D0E0F0B0B0B0B    ",
"        0B0B0B0G0H0B0B0B0B      "};

